<svg version="1.1" viewBox="0.0 0.0 600.0 589.0" fill="none" stroke="none" stroke-linecap="square" stroke-miterlimit="10" width="600" height="589" xmlns:xlink="http://www.w3.org/1999/xlink" xmlns="http://www.w3.org/2000/svg"><path fill="#ffffff" d="M0 0L600.0 0L600.0 589.0L0 589.0L0 0Z" fill-rule="nonzero"/><path stroke="#333333" stroke-width="1.0" stroke-linecap="butt" d="M84.5 501.5L570.5 501.5" fill-rule="nonzero"/><path stroke="#cccccc" stroke-width="1.0" stroke-linecap="butt" d="M84.5 396.5L570.5 396.5" fill-rule="nonzero"/><path stroke="#cccccc" stroke-width="1.0" stroke-linecap="butt" d="M84.5 290.5L570.5 290.5" fill-rule="nonzero"/><path stroke="#cccccc" stroke-width="1.0" stroke-linecap="butt" d="M84.5 185.5L570.5 185.5" fill-rule="nonzero"/><path stroke="#cccccc" stroke-width="1.0" stroke-linecap="butt" d="M84.5 80.5L570.5 80.5" fill-rule="nonzero"/><path stroke="#000000" stroke-width="1.0" stroke-linecap="butt" d="M570.5 501.5L84.5 501.5" fill-rule="nonzero"/><clipPath id="id_0"><path d="M84.45 80.083336L570.55 80.083336L570.55 501.55L84.45 501.55L84.45 80.083336Z" clip-rule="nonzero"/></clipPath><path stroke="#4285f4" stroke-width="2.0" stroke-linecap="butt" clip-path="url(#id_0)" d="M145.78038 248.67828L145.78038 417.2678" fill-rule="nonzero"/><path stroke="#4285f4" stroke-width="2.0" stroke-linecap="butt" clip-path="url(#id_0)" d="M145.78038 417.2678L145.78038 375.11414" fill-rule="nonzero"/><path fill="#4285f4" clip-path="url(#id_0)" d="M115.25093 374.11414L176.30981 374.11414L176.30981 418.2678L115.25093 418.2678L115.25093 374.11414Z" fill-rule="nonzero"/><path stroke="#4285f4" stroke-width="2.0" stroke-linecap="butt" clip-path="url(#id_0)" d="M236.64018 248.67828L236.64018 417.24268" fill-rule="nonzero"/><path stroke="#4285f4" stroke-width="2.0" stroke-linecap="butt" clip-path="url(#id_0)" d="M236.64018 417.2678L236.64018 375.11414" fill-rule="nonzero"/><path fill="#4285f4" clip-path="url(#id_0)" d="M206.11075 374.11414L267.16962 374.11414L267.16962 418.24268L206.11075 418.24268L206.11075 374.11414Z" fill-rule="nonzero"/><path stroke="#4285f4" stroke-width="2.0" stroke-linecap="butt" clip-path="url(#id_0)" d="M327.5 164.37096L327.5 332.9856" fill-rule="nonzero"/><path stroke="#4285f4" stroke-width="2.0" stroke-linecap="butt" clip-path="url(#id_0)" d="M327.5 375.11414L327.5 332.96048" fill-rule="nonzero"/><path fill="#4285f4" clip-path="url(#id_0)" d="M296.97055 331.96048L358.02942 331.96048L358.02942 333.9856L296.97055 333.9856L296.97055 331.96048Z" fill-rule="nonzero"/><path stroke="#4285f4" stroke-width="2.0" stroke-linecap="butt" clip-path="url(#id_0)" d="M418.3598 164.37096L418.3598 332.96048" fill-rule="nonzero"/><path stroke="#4285f4" stroke-width="2.0" stroke-linecap="butt" clip-path="url(#id_0)" d="M418.3598 375.11414L418.3598 332.96048" fill-rule="nonzero"/><path fill="#4285f4" clip-path="url(#id_0)" d="M387.83038 331.96048L448.88925 331.96048L448.88925 333.96048L387.83038 333.96048L387.83038 331.96048Z" fill-rule="nonzero"/><path stroke="#4285f4" stroke-width="2.0" stroke-linecap="butt" clip-path="url(#id_0)" d="M509.21964 80.08876L509.21964 332.96048" fill-rule="nonzero"/><path stroke="#4285f4" stroke-width="2.0" stroke-linecap="butt" clip-path="url(#id_0)" d="M509.21964 332.9856L509.21964 290.80682" fill-rule="nonzero"/><path fill="#4285f4" clip-path="url(#id_0)" d="M478.6902 289.80682L539.7491 289.80682L539.7491 333.96048L478.6902 333.96048L478.6902 289.80682Z" fill-rule="nonzero"/><path stroke="#000000" stroke-width="1.0" stroke-linecap="butt" d="M145.5 507.5L145.5 495.5" fill-rule="nonzero"/><path stroke="#000000" stroke-width="1.0" stroke-linecap="butt" d="M236.5 507.5L236.5 495.5" fill-rule="nonzero"/><path stroke="#000000" stroke-width="1.0" stroke-linecap="butt" d="M327.5 507.5L327.5 495.5" fill-rule="nonzero"/><path stroke="#000000" stroke-width="1.0" stroke-linecap="butt" d="M418.5 507.5L418.5 495.5" fill-rule="nonzero"/><path stroke="#000000" stroke-width="1.0" stroke-linecap="butt" d="M509.5 507.5L509.5 495.5" fill-rule="nonzero"/><path fill="#000000" d="M311.42188 556.55L311.42188 547.95624L312.57812 547.95624L317.09375 554.70624L317.09375 547.95624L318.1875 547.95624L318.1875 556.55L317.01562 556.55L312.5 549.8L312.5 556.55L311.42188 556.55ZM324.35938 555.78436Q323.76562 556.28436 323.21875 556.4875Q322.6875 556.6906 322.0625 556.6906Q321.03125 556.6906 320.48438 556.1906Q319.9375 555.6906 319.9375 554.90936Q319.9375 554.45624 320.14062 554.08124Q320.34375 553.6906 320.6875 553.47186Q321.03125 553.2375 321.45312 553.1281Q321.75 553.03436 322.39062 552.95624Q323.65625 552.8156 324.26562 552.59686Q324.26562 552.3781 324.26562 552.33124Q324.26562 551.675 323.96875 551.40936Q323.5625 551.0656 322.76562 551.0656Q322.03125 551.0656 321.67188 551.33124Q321.3125 551.58124 321.14062 552.2375L320.10938 552.09686Q320.25 551.4406 320.57812 551.03436Q320.90625 550.6281 321.51562 550.40936Q322.125 550.1906 322.92188 550.1906Q323.71875 550.1906 324.21875 550.3781Q324.71875 550.5656 324.95312 550.84686Q325.1875 551.1281 325.28125 551.5656Q325.32812 551.83124 325.32812 552.53436L325.32812 553.9406Q325.32812 555.40936 325.39062 555.8Q325.46875 556.1906 325.67188 556.55L324.5625 556.55Q324.40625 556.22186 324.35938 555.78436ZM324.26562 553.425Q323.6875 553.65936 322.54688 553.83124Q321.89062 553.925 321.625 554.05Q321.35938 554.15936 321.20312 554.3781Q321.0625 554.59686 321.0625 554.8781Q321.0625 555.3 321.375 555.58124Q321.70312 555.8625 322.3125 555.8625Q322.92188 555.8625 323.39062 555.59686Q323.875 555.33124 324.09375 554.8625Q324.26562 554.5031 324.26562 553.8156L324.26562 553.425ZM327.29688 556.55L327.29688 550.33124L328.23438 550.33124L328.23438 551.20624Q328.53125 550.7375 329.01562 550.47186Q329.5 550.1906 330.125 550.1906Q330.8125 550.1906 331.25 550.47186Q331.70312 550.7531 331.875 551.26874Q332.625 550.1906 333.79688 550.1906Q334.73438 550.1906 335.21875 550.70624Q335.71875 551.20624 335.71875 552.28436L335.71875 556.55L334.67188 556.55L334.67188 552.6281Q334.67188 552.0031 334.5625 551.72186Q334.46875 551.4406 334.20312 551.26874Q333.9375 551.09686 333.5625 551.09686Q332.90625 551.09686 332.46875 551.53436Q332.04688 551.97186 332.04688 552.9406L332.04688 556.55L330.98438 556.55L330.98438 552.5031Q330.98438 551.8 330.71875 551.45624Q330.46875 551.09686 329.89062 551.09686Q329.4375 551.09686 329.0625 551.33124Q328.6875 551.5656 328.51562 552.01874Q328.34375 552.47186 328.34375 553.3156L328.34375 556.55L327.29688 556.55ZM342.54688 554.55L343.64062 554.675Q343.39062 555.6281 342.6875 556.15936Q341.98438 556.6906 340.90625 556.6906Q339.54688 556.6906 338.73438 555.84686Q337.9375 555.0031 337.9375 553.4875Q337.9375 551.925 338.75 551.0656Q339.5625 550.1906 340.84375 550.1906Q342.09375 550.1906 342.875 551.03436Q343.67188 551.8781 343.67188 553.425Q343.67188 553.51874 343.67188 553.70624L339.03125 553.70624Q339.09375 554.7375 339.60938 555.28436Q340.125 555.8156 340.90625 555.8156Q341.48438 555.8156 341.89062 555.51874Q342.3125 555.20624 342.54688 554.55ZM339.09375 552.84686L342.5625 552.84686Q342.5 552.05 342.17188 551.65936Q341.65625 551.05 340.85938 551.05Q340.125 551.05 339.625 551.53436Q339.14062 552.01874 339.09375 552.84686Z" fill-rule="nonzero"/><path fill="#000000" d="M71.95 501.3156Q71.95 499.78436 72.2625 498.8625Q72.575 497.925 73.18437 497.425Q73.80937 496.925 74.74687 496.925Q75.43437 496.925 75.95 497.20624Q76.48125 497.4875 76.825 498.01874Q77.16875 498.53436 77.35625 499.28436Q77.54375 500.03436 77.54375 501.3156Q77.54375 502.83124 77.23125 503.7531Q76.93437 504.675 76.30937 505.1906Q75.7 505.6906 74.74687 505.6906Q73.5125 505.6906 72.79375 504.8Q71.95 503.7375 71.95 501.3156ZM73.02812 501.3156Q73.02812 503.425 73.52812 504.1281Q74.02812 504.83124 74.74687 504.83124Q75.48125 504.83124 75.96562 504.1281Q76.46562 503.425 76.46562 501.3156Q76.46562 499.1906 75.96562 498.5031Q75.48125 497.8 74.73125 497.8Q74.0125 497.8 73.575 498.40936Q73.02812 499.1906 73.02812 501.3156Z" fill-rule="nonzero"/><path fill="#000000" d="M42.496876 399.1677L42.496876 400.18332L36.809376 400.18332Q36.809376 399.80832 36.934376 399.44894Q37.153126 398.87082 37.621876 398.30832Q38.10625 397.74582 39.0125 397.01144Q40.41875 395.8552 40.903126 395.18332Q41.403126 394.51144 41.403126 393.9177Q41.403126 393.2927 40.95 392.87082Q40.496876 392.43332 39.778126 392.43332Q39.0125 392.43332 38.559376 392.88644Q38.10625 393.33957 38.090626 394.15207L37.0125 394.0427Q37.121876 392.82394 37.840626 392.19894Q38.575 391.55832 39.809376 391.55832Q41.04375 391.55832 41.7625 392.24582Q42.48125 392.93332 42.48125 393.94894Q42.48125 394.46457 42.2625 394.96457Q42.059376 395.44894 41.559376 396.01144Q41.075 396.55832 39.95 397.51144Q38.996876 398.30832 38.715626 398.6052Q38.45 398.88644 38.278126 399.1677L42.496876 399.1677ZM43.95 397.93332L45.059376 397.83957Q45.184376 398.65207 45.621876 399.05832Q46.075 399.46457 46.715626 399.46457Q47.465626 399.46457 47.996876 398.88644Q48.528126 398.30832 48.528126 397.37082Q48.528126 396.46457 48.0125 395.94894Q47.5125 395.4177 46.684376 395.4177Q46.184376 395.4177 45.7625 395.65207Q45.35625 395.88644 45.121876 396.24582L44.1375 396.12082L44.965626 391.71457L49.246876 391.71457L49.246876 392.71457L45.809376 392.71457L45.35625 395.02707Q46.121876 394.4802 46.965626 394.4802Q48.090626 394.4802 48.85625 395.26144Q49.6375 396.0427 49.6375 397.27707Q49.6375 398.43332 48.965626 399.2927Q48.1375 400.32394 46.715626 400.32394Q45.54375 400.32394 44.79375 399.6677Q44.059376 399.01144 43.95 397.93332ZM50.95 395.94894Q50.95 394.4177 51.2625 393.49582Q51.575 392.55832 52.184376 392.05832Q52.809376 391.55832 53.746876 391.55832Q54.434376 391.55832 54.95 391.83957Q55.48125 392.12082 55.825 392.65207Q56.16875 393.1677 56.35625 393.9177Q56.54375 394.6677 56.54375 395.94894Q56.54375 397.46457 56.23125 398.38644Q55.934376 399.30832 55.309376 399.82394Q54.7 400.32394 53.746876 400.32394Q52.5125 400.32394 51.79375 399.43332Q50.95 398.37082 50.95 395.94894ZM52.028126 395.94894Q52.028126 398.05832 52.528126 398.76144Q53.028126 399.46457 53.746876 399.46457Q54.48125 399.46457 54.965626 398.76144Q55.465626 398.05832 55.465626 395.94894Q55.465626 393.82394 54.965626 393.13644Q54.48125 392.43332 53.73125 392.43332Q53.0125 392.43332 52.575 393.0427Q52.028126 393.82394 52.028126 395.94894ZM57.95 395.94894Q57.95 394.4177 58.2625 393.49582Q58.575 392.55832 59.184376 392.05832Q59.809376 391.55832 60.746876 391.55832Q61.434376 391.55832 61.95 391.83957Q62.48125 392.12082 62.825 392.65207Q63.16875 393.1677 63.35625 393.9177Q63.54375 394.6677 63.54375 395.94894Q63.54375 397.46457 63.23125 398.38644Q62.934376 399.30832 62.309376 399.82394Q61.7 400.32394 60.746876 400.32394Q59.5125 400.32394 58.79375 399.43332Q57.95 398.37082 57.95 395.94894ZM59.028126 395.94894Q59.028126 398.05832 59.528126 398.76144Q60.028126 399.46457 60.746876 399.46457Q61.48125 399.46457 61.965626 398.76144Q62.465626 398.05832 62.465626 395.94894Q62.465626 393.82394 61.965626 393.13644Q61.48125 392.43332 60.73125 392.43332Q60.0125 392.43332 59.575 393.0427Q59.028126 393.82394 59.028126 395.94894ZM64.95 395.94894Q64.95 394.4177 65.2625 393.49582Q65.575 392.55832 66.18437 392.05832Q66.80937 391.55832 67.74687 391.55832Q68.43437 391.55832 68.95 391.83957Q69.48125 392.12082 69.825 392.65207Q70.16875 393.1677 70.35625 393.9177Q70.54375 394.6677 70.54375 395.94894Q70.54375 397.46457 70.23125 398.38644Q69.93437 399.30832 69.30937 399.82394Q68.7 400.32394 67.74687 400.32394Q66.5125 400.32394 65.79375 399.43332Q64.95 398.37082 64.95 395.94894ZM66.02812 395.94894Q66.02812 398.05832 66.52812 398.76144Q67.02812 399.46457 67.74687 399.46457Q68.48125 399.46457 68.96562 398.76144Q69.46562 398.05832 69.46562 395.94894Q69.46562 393.82394 68.96562 393.13644Q68.48125 392.43332 67.73125 392.43332Q67.0125 392.43332 66.575 393.0427Q66.02812 393.82394 66.02812 395.94894ZM71.95 395.94894Q71.95 394.4177 72.2625 393.49582Q72.575 392.55832 73.18437 392.05832Q73.80937 391.55832 74.74687 391.55832Q75.43437 391.55832 75.95 391.83957Q76.48125 392.12082 76.825 392.65207Q77.16875 393.1677 77.35625 393.9177Q77.54375 394.6677 77.54375 395.94894Q77.54375 397.46457 77.23125 398.38644Q76.93437 399.30832 76.30937 399.82394Q75.7 400.32394 74.74687 400.32394Q73.5125 400.32394 72.79375 399.43332Q71.95 398.37082 71.95 395.94894ZM73.02812 395.94894Q73.02812 398.05832 73.52812 398.76144Q74.02812 399.46457 74.74687 399.46457Q75.48125 399.46457 75.96562 398.76144Q76.46562 398.05832 76.46562 395.94894Q76.46562 393.82394 75.96562 393.13644Q75.48125 392.43332 74.73125 392.43332Q74.0125 392.43332 73.575 393.0427Q73.02812 393.82394 73.02812 395.94894Z" fill-rule="nonzero"/><path fill="#000000" d="M36.95 292.56668L38.059376 292.47293Q38.184376 293.28543 38.621876 293.69168Q39.075 294.09793 39.715626 294.09793Q40.465626 294.09793 40.996876 293.5198Q41.528126 292.94168 41.528126 292.00418Q41.528126 291.09793 41.0125 290.5823Q40.5125 290.05106 39.684376 290.05106Q39.184376 290.05106 38.7625 290.28543Q38.35625 290.5198 38.121876 290.87918L37.1375 290.75418L37.965626 286.34793L42.246876 286.34793L42.246876 287.34793L38.809376 287.34793L38.35625 289.66043Q39.121876 289.11356 39.965626 289.11356Q41.090626 289.11356 41.85625 289.8948Q42.6375 290.67606 42.6375 291.91043Q42.6375 293.06668 41.965626 293.92606Q41.1375 294.9573 39.715626 294.9573Q38.54375 294.9573 37.79375 294.30106Q37.059376 293.6448 36.95 292.56668ZM43.95 290.5823Q43.95 289.05106 44.2625 288.12918Q44.575 287.19168 45.184376 286.69168Q45.809376 286.19168 46.746876 286.19168Q47.434376 286.19168 47.95 286.47293Q48.48125 286.75418 48.825 287.28543Q49.16875 287.80106 49.35625 288.55106Q49.54375 289.30106 49.54375 290.5823Q49.54375 292.09793 49.23125 293.0198Q48.934376 293.94168 48.309376 294.4573Q47.7 294.9573 46.746876 294.9573Q45.5125 294.9573 44.79375 294.06668Q43.95 293.00418 43.95 290.5823ZM45.028126 290.5823Q45.028126 292.69168 45.528126 293.3948Q46.028126 294.09793 46.746876 294.09793Q47.48125 294.09793 47.965626 293.3948Q48.465626 292.69168 48.465626 290.5823Q48.465626 288.4573 47.965626 287.7698Q47.48125 287.06668 46.73125 287.06668Q46.0125 287.06668 45.575 287.67606Q45.028126 288.4573 45.028126 290.5823ZM50.95 290.5823Q50.95 289.05106 51.2625 288.12918Q51.575 287.19168 52.184376 286.69168Q52.809376 286.19168 53.746876 286.19168Q54.434376 286.19168 54.95 286.47293Q55.48125 286.75418 55.825 287.28543Q56.16875 287.80106 56.35625 288.55106Q56.54375 289.30106 56.54375 290.5823Q56.54375 292.09793 56.23125 293.0198Q55.934376 293.94168 55.309376 294.4573Q54.7 294.9573 53.746876 294.9573Q52.5125 294.9573 51.79375 294.06668Q50.95 293.00418 50.95 290.5823ZM52.028126 290.5823Q52.028126 292.69168 52.528126 293.3948Q53.028126 294.09793 53.746876 294.09793Q54.48125 294.09793 54.965626 293.3948Q55.465626 292.69168 55.465626 290.5823Q55.465626 288.4573 54.965626 287.7698Q54.48125 287.06668 53.73125 287.06668Q53.0125 287.06668 52.575 287.67606Q52.028126 288.4573 52.028126 290.5823ZM57.95 290.5823Q57.95 289.05106 58.2625 288.12918Q58.575 287.19168 59.184376 286.69168Q59.809376 286.19168 60.746876 286.19168Q61.434376 286.19168 61.95 286.47293Q62.48125 286.75418 62.825 287.28543Q63.16875 287.80106 63.35625 288.55106Q63.54375 289.30106 63.54375 290.5823Q63.54375 292.09793 63.23125 293.0198Q62.934376 293.94168 62.309376 294.4573Q61.7 294.9573 60.746876 294.9573Q59.5125 294.9573 58.79375 294.06668Q57.95 293.00418 57.95 290.5823ZM59.028126 290.5823Q59.028126 292.69168 59.528126 293.3948Q60.028126 294.09793 60.746876 294.09793Q61.48125 294.09793 61.965626 293.3948Q62.465626 292.69168 62.465626 290.5823Q62.465626 288.4573 61.965626 287.7698Q61.48125 287.06668 60.73125 287.06668Q60.0125 287.06668 59.575 287.67606Q59.028126 288.4573 59.028126 290.5823ZM64.95 290.5823Q64.95 289.05106 65.2625 288.12918Q65.575 287.19168 66.18437 286.69168Q66.80937 286.19168 67.74687 286.19168Q68.43437 286.19168 68.95 286.47293Q69.48125 286.75418 69.825 287.28543Q70.16875 287.80106 70.35625 288.55106Q70.54375 289.30106 70.54375 290.5823Q70.54375 292.09793 70.23125 293.0198Q69.93437 293.94168 69.30937 294.4573Q68.7 294.9573 67.74687 294.9573Q66.5125 294.9573 65.79375 294.06668Q64.95 293.00418 64.95 290.5823ZM66.02812 290.5823Q66.02812 292.69168 66.52812 293.3948Q67.02812 294.09793 67.74687 294.09793Q68.48125 294.09793 68.96562 293.3948Q69.46562 292.69168 69.46562 290.5823Q69.46562 288.4573 68.96562 287.7698Q68.48125 287.06668 67.73125 287.06668Q67.0125 287.06668 66.575 287.67606Q66.02812 288.4573 66.02812 290.5823ZM71.95 290.5823Q71.95 289.05106 72.2625 288.12918Q72.575 287.19168 73.18437 286.69168Q73.80937 286.19168 74.74687 286.19168Q75.43437 286.19168 75.95 286.47293Q76.48125 286.75418 76.825 287.28543Q77.16875 287.80106 77.35625 288.55106Q77.54375 289.30106 77.54375 290.5823Q77.54375 292.09793 77.23125 293.0198Q76.93437 293.94168 76.30937 294.4573Q75.7 294.9573 74.74687 294.9573Q73.5125 294.9573 72.79375 294.06668Q71.95 293.00418 71.95 290.5823ZM73.02812 290.5823Q73.02812 292.69168 73.52812 293.3948Q74.02812 294.09793 74.74687 294.09793Q75.48125 294.09793 75.96562 293.3948Q76.46562 292.69168 76.46562 290.5823Q76.46562 288.4573 75.96562 287.7698Q75.48125 287.06668 74.73125 287.06668Q74.0125 287.06668 73.575 287.67606Q73.02812 288.4573 73.02812 290.5823Z" fill-rule="nonzero"/><path fill="#000000" d="M37.0125 181.98125L37.0125 180.96562L42.575 180.96562L42.575 181.79375Q41.7625 182.66875 40.95 184.12187Q40.153126 185.55937 39.715626 187.09062Q39.3875 188.16875 39.309376 189.45L38.215626 189.45Q38.23125 188.43437 38.60625 186.99687Q38.996876 185.55937 39.7 184.23125Q40.41875 182.90312 41.23125 181.98125L37.0125 181.98125ZM43.95 187.2L45.059376 187.10625Q45.184376 187.91875 45.621876 188.325Q46.075 188.73125 46.715626 188.73125Q47.465626 188.73125 47.996876 188.15312Q48.528126 187.575 48.528126 186.6375Q48.528126 185.73125 48.0125 185.21562Q47.5125 184.68437 46.684376 184.68437Q46.184376 184.68437 45.7625 184.91875Q45.35625 185.15312 45.121876 185.5125L44.1375 185.3875L44.965626 180.98125L49.246876 180.98125L49.246876 181.98125L45.809376 181.98125L45.35625 184.29375Q46.121876 183.74687 46.965626 183.74687Q48.090626 183.74687 48.85625 184.52812Q49.6375 185.30937 49.6375 186.54375Q49.6375 187.7 48.965626 188.55937Q48.1375 189.59062 46.715626 189.59062Q45.54375 189.59062 44.79375 188.93437Q44.059376 188.27812 43.95 187.2ZM50.95 185.21562Q50.95 183.68437 51.2625 182.7625Q51.575 181.825 52.184376 181.325Q52.809376 180.825 53.746876 180.825Q54.434376 180.825 54.95 181.10625Q55.48125 181.3875 55.825 181.91875Q56.16875 182.43437 56.35625 183.18437Q56.54375 183.93437 56.54375 185.21562Q56.54375 186.73125 56.23125 187.65312Q55.934376 188.575 55.309376 189.09062Q54.7 189.59062 53.746876 189.59062Q52.5125 189.59062 51.79375 188.7Q50.95 187.6375 50.95 185.21562ZM52.028126 185.21562Q52.028126 187.325 52.528126 188.02812Q53.028126 188.73125 53.746876 188.73125Q54.48125 188.73125 54.965626 188.02812Q55.465626 187.325 55.465626 185.21562Q55.465626 183.09062 54.965626 182.40312Q54.48125 181.7 53.73125 181.7Q53.0125 181.7 52.575 182.30937Q52.028126 183.09062 52.028126 185.21562ZM57.95 185.21562Q57.95 183.68437 58.2625 182.7625Q58.575 181.825 59.184376 181.325Q59.809376 180.825 60.746876 180.825Q61.434376 180.825 61.95 181.10625Q62.48125 181.3875 62.825 181.91875Q63.16875 182.43437 63.35625 183.18437Q63.54375 183.93437 63.54375 185.21562Q63.54375 186.73125 63.23125 187.65312Q62.934376 188.575 62.309376 189.09062Q61.7 189.59062 60.746876 189.59062Q59.5125 189.59062 58.79375 188.7Q57.95 187.6375 57.95 185.21562ZM59.028126 185.21562Q59.028126 187.325 59.528126 188.02812Q60.028126 188.73125 60.746876 188.73125Q61.48125 188.73125 61.965626 188.02812Q62.465626 187.325 62.465626 185.21562Q62.465626 183.09062 61.965626 182.40312Q61.48125 181.7 60.73125 181.7Q60.0125 181.7 59.575 182.30937Q59.028126 183.09062 59.028126 185.21562ZM64.95 185.21562Q64.95 183.68437 65.2625 182.7625Q65.575 181.825 66.18437 181.325Q66.80937 180.825 67.74687 180.825Q68.43437 180.825 68.95 181.10625Q69.48125 181.3875 69.825 181.91875Q70.16875 182.43437 70.35625 183.18437Q70.54375 183.93437 70.54375 185.21562Q70.54375 186.73125 70.23125 187.65312Q69.93437 188.575 69.30937 189.09062Q68.7 189.59062 67.74687 189.59062Q66.5125 189.59062 65.79375 188.7Q64.95 187.6375 64.95 185.21562ZM66.02812 185.21562Q66.02812 187.325 66.52812 188.02812Q67.02812 188.73125 67.74687 188.73125Q68.48125 188.73125 68.96562 188.02812Q69.46562 187.325 69.46562 185.21562Q69.46562 183.09062 68.96562 182.40312Q68.48125 181.7 67.73125 181.7Q67.0125 181.7 66.575 182.30937Q66.02812 183.09062 66.02812 185.21562ZM71.95 185.21562Q71.95 183.68437 72.2625 182.7625Q72.575 181.825 73.18437 181.325Q73.80937 180.825 74.74687 180.825Q75.43437 180.825 75.95 181.10625Q76.48125 181.3875 76.825 181.91875Q77.16875 182.43437 77.35625 183.18437Q77.54375 183.93437 77.54375 185.21562Q77.54375 186.73125 77.23125 187.65312Q76.93437 188.575 76.30937 189.09062Q75.7 189.59062 74.74687 189.59062Q73.5125 189.59062 72.79375 188.7Q71.95 187.6375 71.95 185.21562ZM73.02812 185.21562Q73.02812 187.325 73.52812 188.02812Q74.02812 188.73125 74.74687 188.73125Q75.48125 188.73125 75.96562 188.02812Q76.46562 187.325 76.46562 185.21562Q76.46562 183.09062 75.96562 182.40312Q75.48125 181.7 74.73125 181.7Q74.0125 181.7 73.575 182.30937Q73.02812 183.09062 73.02812 185.21562Z" fill-rule="nonzero"/><path fill="#000000" d="M33.91875 84.083336L32.871876 84.083336L32.871876 77.364586Q32.48125 77.72396 31.85625 78.09896Q31.246876 78.458336 30.7625 78.63021L30.7625 77.614586Q31.6375 77.19271 32.29375 76.614586Q32.965626 76.020836 33.246876 75.458336L33.91875 75.458336L33.91875 84.083336ZM36.95 79.84896Q36.95 78.31771 37.2625 77.395836Q37.575 76.458336 38.184376 75.958336Q38.809376 75.458336 39.746876 75.458336Q40.434376 75.458336 40.95 75.739586Q41.48125 76.020836 41.825 76.552086Q42.16875 77.06771 42.35625 77.81771Q42.54375 78.56771 42.54375 79.84896Q42.54375 81.364586 42.23125 82.28646Q41.934376 83.208336 41.309376 83.72396Q40.7 84.22396 39.746876 84.22396Q38.5125 84.22396 37.79375 83.333336Q36.95 82.270836 36.95 79.84896ZM38.028126 79.84896Q38.028126 81.958336 38.528126 82.66146Q39.028126 83.364586 39.746876 83.364586Q40.48125 83.364586 40.965626 82.66146Q41.465626 81.958336 41.465626 79.84896Q41.465626 77.72396 40.965626 77.03646Q40.48125 76.333336 39.73125 76.333336Q39.0125 76.333336 38.575 76.94271Q38.028126 77.72396 38.028126 79.84896ZM43.95 79.84896Q43.95 78.31771 44.2625 77.395836Q44.575 76.458336 45.184376 75.958336Q45.809376 75.458336 46.746876 75.458336Q47.434376 75.458336 47.95 75.739586Q48.48125 76.020836 48.825 76.552086Q49.16875 77.06771 49.35625 77.81771Q49.54375 78.56771 49.54375 79.84896Q49.54375 81.364586 49.23125 82.28646Q48.934376 83.208336 48.309376 83.72396Q47.7 84.22396 46.746876 84.22396Q45.5125 84.22396 44.79375 83.333336Q43.95 82.270836 43.95 79.84896ZM45.028126 79.84896Q45.028126 81.958336 45.528126 82.66146Q46.028126 83.364586 46.746876 83.364586Q47.48125 83.364586 47.965626 82.66146Q48.465626 81.958336 48.465626 79.84896Q48.465626 77.72396 47.965626 77.03646Q47.48125 76.333336 46.73125 76.333336Q46.0125 76.333336 45.575 76.94271Q45.028126 77.72396 45.028126 79.84896ZM50.95 79.84896Q50.95 78.31771 51.2625 77.395836Q51.575 76.458336 52.184376 75.958336Q52.809376 75.458336 53.746876 75.458336Q54.434376 75.458336 54.95 75.739586Q55.48125 76.020836 55.825 76.552086Q56.16875 77.06771 56.35625 77.81771Q56.54375 78.56771 56.54375 79.84896Q56.54375 81.364586 56.23125 82.28646Q55.934376 83.208336 55.309376 83.72396Q54.7 84.22396 53.746876 84.22396Q52.5125 84.22396 51.79375 83.333336Q50.95 82.270836 50.95 79.84896ZM52.028126 79.84896Q52.028126 81.958336 52.528126 82.66146Q53.028126 83.364586 53.746876 83.364586Q54.48125 83.364586 54.965626 82.66146Q55.465626 81.958336 55.465626 79.84896Q55.465626 77.72396 54.965626 77.03646Q54.48125 76.333336 53.73125 76.333336Q53.0125 76.333336 52.575 76.94271Q52.028126 77.72396 52.028126 79.84896ZM57.95 79.84896Q57.95 78.31771 58.2625 77.395836Q58.575 76.458336 59.184376 75.958336Q59.809376 75.458336 60.746876 75.458336Q61.434376 75.458336 61.95 75.739586Q62.48125 76.020836 62.825 76.552086Q63.16875 77.06771 63.35625 77.81771Q63.54375 78.56771 63.54375 79.84896Q63.54375 81.364586 63.23125 82.28646Q62.934376 83.208336 62.309376 83.72396Q61.7 84.22396 60.746876 84.22396Q59.5125 84.22396 58.79375 83.333336Q57.95 82.270836 57.95 79.84896ZM59.028126 79.84896Q59.028126 81.958336 59.528126 82.66146Q60.028126 83.364586 60.746876 83.364586Q61.48125 83.364586 61.965626 82.66146Q62.465626 81.958336 62.465626 79.84896Q62.465626 77.72396 61.965626 77.03646Q61.48125 76.333336 60.73125 76.333336Q60.0125 76.333336 59.575 76.94271Q59.028126 77.72396 59.028126 79.84896ZM64.95 79.84896Q64.95 78.31771 65.2625 77.395836Q65.575 76.458336 66.18437 75.958336Q66.80937 75.458336 67.74687 75.458336Q68.43437 75.458336 68.95 75.739586Q69.48125 76.020836 69.825 76.552086Q70.16875 77.06771 70.35625 77.81771Q70.54375 78.56771 70.54375 79.84896Q70.54375 81.364586 70.23125 82.28646Q69.93437 83.208336 69.30937 83.72396Q68.7 84.22396 67.74687 84.22396Q66.5125 84.22396 65.79375 83.333336Q64.95 82.270836 64.95 79.84896ZM66.02812 79.84896Q66.02812 81.958336 66.52812 82.66146Q67.02812 83.364586 67.74687 83.364586Q68.48125 83.364586 68.96562 82.66146Q69.46562 81.958336 69.46562 79.84896Q69.46562 77.72396 68.96562 77.03646Q68.48125 76.333336 67.73125 76.333336Q67.0125 76.333336 66.575 76.94271Q66.02812 77.72396 66.02812 79.84896ZM71.95 79.84896Q71.95 78.31771 72.2625 77.395836Q72.575 76.458336 73.18437 75.958336Q73.80937 75.458336 74.74687 75.458336Q75.43437 75.458336 75.95 75.739586Q76.48125 76.020836 76.825 76.552086Q77.16875 77.06771 77.35625 77.81771Q77.54375 78.56771 77.54375 79.84896Q77.54375 81.364586 77.23125 82.28646Q76.93437 83.208336 76.30937 83.72396Q75.7 84.22396 74.74687 84.22396Q73.5125 84.22396 72.79375 83.333336Q71.95 82.270836 71.95 79.84896ZM73.02812 79.84896Q73.02812 81.958336 73.52812 82.66146Q74.02812 83.364586 74.74687 83.364586Q75.48125 83.364586 75.96562 82.66146Q76.46562 81.958336 76.46562 79.84896Q76.46562 77.72396 75.96562 77.03646Q75.48125 76.333336 74.73125 76.333336Q74.0125 76.333336 73.575 76.94271Q73.02812 77.72396 73.02812 79.84896Z" fill-rule="nonzero"/><path fill="#000000" d="M120.56162 517.1906L120.56162 515.95624L121.62412 515.95624L121.62412 517.1906L120.56162 517.1906ZM119.2335 526.97186L119.421 526.0656Q119.74912 526.14374 119.921 526.14374Q120.24912 526.14374 120.40537 525.925Q120.56162 525.72186 120.56162 524.8625L120.56162 518.33124L121.62412 518.33124L121.62412 524.89374Q121.62412 526.03436 121.32725 526.4875Q120.93662 527.08124 120.06162 527.08124Q119.62412 527.08124 119.2335 526.97186ZM127.63975 523.78436Q127.046 524.28436 126.49912 524.4875Q125.96787 524.6906 125.34287 524.6906Q124.31162 524.6906 123.76475 524.1906Q123.21787 523.6906 123.21787 522.90936Q123.21787 522.45624 123.421 522.08124Q123.62412 521.6906 123.96787 521.47186Q124.31162 521.2375 124.7335 521.1281Q125.03037 521.03436 125.671 520.95624Q126.93662 520.8156 127.546 520.59686Q127.546 520.3781 127.546 520.33124Q127.546 519.675 127.24912 519.40936Q126.84287 519.0656 126.046 519.0656Q125.31162 519.0656 124.95225 519.33124Q124.59287 519.58124 124.421 520.2375L123.38975 520.09686Q123.53037 519.4406 123.8585 519.03436Q124.18662 518.6281 124.796 518.40936Q125.40537 518.1906 126.20225 518.1906Q126.99912 518.1906 127.49912 518.3781Q127.99912 518.5656 128.23349 518.84686Q128.46786 519.1281 128.56161 519.5656Q128.60849 519.83124 128.60849 520.53436L128.60849 521.9406Q128.60849 523.40936 128.67099 523.8Q128.74911 524.1906 128.95224 524.55L127.84287 524.55Q127.68662 524.22186 127.63975 523.78436ZM127.546 521.425Q126.96787 521.65936 125.82725 521.83124Q125.171 521.925 124.90537 522.05Q124.63975 522.15936 124.4835 522.3781Q124.34287 522.59686 124.34287 522.8781Q124.34287 523.3 124.65537 523.58124Q124.9835 523.8625 125.59287 523.8625Q126.20225 523.8625 126.671 523.59686Q127.15537 523.33124 127.37412 522.8625Q127.546 522.5031 127.546 521.8156L127.546 521.425ZM132.29599 524.55L129.93661 518.33124L131.04599 518.33124L132.38974 522.05Q132.59286 522.65936 132.78036 523.3Q132.92099 522.8156 133.17099 522.1281L134.56161 518.33124L135.63974 518.33124L133.28036 524.55L132.29599 524.55ZM139.63974 523.78436Q139.04599 524.28436 138.49911 524.4875Q137.96786 524.6906 137.34286 524.6906Q136.31161 524.6906 135.76474 524.1906Q135.21786 523.6906 135.21786 522.90936Q135.21786 522.45624 135.42099 522.08124Q135.62411 521.6906 135.96786 521.47186Q136.31161 521.2375 136.73349 521.1281Q137.03036 521.03436 137.67099 520.95624Q138.93661 520.8156 139.54599 520.59686Q139.54599 520.3781 139.54599 520.33124Q139.54599 519.675 139.24911 519.40936Q138.84286 519.0656 138.04599 519.0656Q137.31161 519.0656 136.95224 519.33124Q136.59286 519.58124 136.42099 520.2375L135.38974 520.09686Q135.53036 519.4406 135.85849 519.03436Q136.18661 518.6281 136.79599 518.40936Q137.40536 518.1906 138.20224 518.1906Q138.99911 518.1906 139.49911 518.3781Q139.99911 518.5656 140.23349 518.84686Q140.46786 519.1281 140.56161 519.5656Q140.60849 519.83124 140.60849 520.53436L140.60849 521.9406Q140.60849 523.40936 140.67099 523.8Q140.74911 524.1906 140.95224 524.55L139.84286 524.55Q139.68661 524.22186 139.63974 523.78436ZM139.54599 521.425Q138.96786 521.65936 137.82724 521.83124Q137.17099 521.925 136.90536 522.05Q136.63974 522.15936 136.48349 522.3781Q136.34286 522.59686 136.34286 522.8781Q136.34286 523.3 136.65536 523.58124Q136.98349 523.8625 137.59286 523.8625Q138.20224 523.8625 138.67099 523.59686Q139.15536 523.33124 139.37411 522.8625Q139.54599 522.5031 139.54599 521.8156L139.54599 521.425ZM142.15536 522.6906L143.18661 522.53436Q143.28036 523.15936 143.67099 523.4875Q144.07724 523.8156 144.81161 523.8156Q145.53036 523.8156 145.87411 523.53436Q146.23349 523.2375 146.23349 522.83124Q146.23349 522.47186 145.92099 522.26874Q145.70224 522.1281 144.84286 521.90936Q143.68661 521.6125 143.23349 521.40936Q142.79599 521.1906 142.56161 520.8156Q142.32724 520.4406 142.32724 519.97186Q142.32724 519.5656 142.51474 519.20624Q142.70224 518.84686 143.03036 518.6125Q143.28036 518.4406 143.70224 518.3156Q144.12411 518.1906 144.62411 518.1906Q145.34286 518.1906 145.88974 518.40936Q146.45224 518.6125 146.71786 518.97186Q146.98349 519.33124 147.07724 519.925L146.04599 520.0656Q145.98349 519.59686 145.63974 519.33124Q145.31161 519.05 144.68661 519.05Q143.96786 519.05 143.65536 519.3Q143.34286 519.53436 143.34286 519.8625Q143.34286 520.0656 143.46786 520.22186Q143.60849 520.39374 143.87411 520.5031Q144.03036 520.5656 144.81161 520.76874Q145.93661 521.08124 146.37411 521.26874Q146.81161 521.45624 147.06161 521.8156Q147.31161 522.175 147.31161 522.72186Q147.31161 523.2531 146.99911 523.72186Q146.70224 524.175 146.12411 524.4406Q145.54599 524.6906 144.81161 524.6906Q143.59286 524.6906 142.95224 524.1906Q142.32724 523.675 142.15536 522.6906ZM153.63974 522.26874L154.67099 522.40936Q154.49911 523.47186 153.79599 524.08124Q153.09286 524.6906 152.07724 524.6906Q150.79599 524.6906 150.01474 523.8625Q149.24911 523.01874 149.24911 521.45624Q149.24911 520.45624 149.57724 519.70624Q149.92099 518.9406 150.59286 518.5656Q151.28036 518.1906 152.09286 518.1906Q153.09286 518.1906 153.73349 518.70624Q154.38974 519.20624 154.57724 520.15936L153.54599 520.3156Q153.40536 519.6906 153.03036 519.3781Q152.65536 519.05 152.12411 519.05Q151.32724 519.05 150.82724 519.6281Q150.32724 520.1906 150.32724 521.425Q150.32724 522.6906 150.81161 523.2531Q151.29599 523.8156 152.06161 523.8156Q152.68661 523.8156 153.09286 523.4406Q153.51474 523.0656 153.63974 522.26874ZM155.56161 524.55L155.56161 518.33124L156.51474 518.33124L156.51474 519.26874Q156.87411 518.6125 157.17099 518.40936Q157.48349 518.1906 157.85849 518.1906Q158.38974 518.1906 158.93661 518.51874L158.57724 519.5031Q158.18661 519.26874 157.81161 519.26874Q157.45224 519.26874 157.17099 519.4875Q156.90536 519.6906 156.79599 520.0656Q156.60849 520.6281 156.60849 521.28436L156.60849 524.55L155.56161 524.55ZM159.57724 517.175L159.57724 515.95624L160.63974 515.95624L160.63974 517.175L159.57724 517.175ZM159.57724 524.55L159.57724 518.33124L160.63974 518.33124L160.63974 524.55L159.57724 524.55ZM162.57724 526.9406L162.57724 518.33124L163.53036 518.33124L163.53036 519.1281Q163.87411 518.65936 164.29599 518.425Q164.73349 518.1906 165.34286 518.1906Q166.13974 518.1906 166.74911 518.59686Q167.35849 519.0031 167.65536 519.7531Q167.96786 520.5031 167.96786 521.39374Q167.96786 522.34686 167.62411 523.1125Q167.29599 523.8781 166.63974 524.28436Q165.98349 524.6906 165.26474 524.6906Q164.73349 524.6906 164.31161 524.47186Q163.88974 524.2375 163.62411 523.90936L163.62411 526.9406L162.57724 526.9406ZM163.53036 521.47186Q163.53036 522.675 164.01474 523.2531Q164.49911 523.8156 165.18661 523.8156Q165.88974 523.8156 166.38974 523.22186Q166.88974 522.6281 166.88974 521.3781Q166.88974 520.1906 166.40536 519.6125Q165.92099 519.01874 165.23349 519.01874Q164.56161 519.01874 164.04599 519.64374Q163.53036 520.26874 163.53036 521.47186ZM171.87411 523.6125L172.03036 524.53436Q171.57724 524.6281 171.23349 524.6281Q170.65536 524.6281 170.34286 524.45624Q170.03036 524.26874 169.88974 523.97186Q169.76474 523.675 169.76474 522.72186L169.76474 519.14374L168.99911 519.14374L168.99911 518.33124L169.76474 518.33124L169.76474 516.78436L170.81161 516.15936L170.81161 518.33124L171.87411 518.33124L171.87411 519.14374L170.81161 519.14374L170.81161 522.78436Q170.81161 523.2375 170.85849 523.3625Q170.92099 523.4875 171.04599 523.5656Q171.17099 523.64374 171.40536 523.64374Q171.59286 523.64374 171.87411 523.6125Z" fill-rule="nonzero"/><path fill="#000000" d="M214.07768 524.55L212.17143 518.33124L213.26518 518.33124L214.24956 521.925L214.62456 523.2531Q214.6558 523.15936 214.95268 521.97186L215.93706 518.33124L217.01518 518.33124L217.95268 521.9406L218.26518 523.1281L218.62456 521.925L219.68706 518.33124L220.7183 518.33124L218.76518 524.55L217.67143 524.55L216.68706 520.8156L216.43706 519.76874L215.18706 524.55L214.07768 524.55ZM225.99956 523.78436Q225.4058 524.28436 224.85893 524.4875Q224.32768 524.6906 223.70268 524.6906Q222.67143 524.6906 222.12456 524.1906Q221.57768 523.6906 221.57768 522.90936Q221.57768 522.45624 221.7808 522.08124Q221.98393 521.6906 222.32768 521.47186Q222.67143 521.2375 223.0933 521.1281Q223.39018 521.03436 224.0308 520.95624Q225.29643 520.8156 225.9058 520.59686Q225.9058 520.3781 225.9058 520.33124Q225.9058 519.675 225.60893 519.40936Q225.20268 519.0656 224.4058 519.0656Q223.67143 519.0656 223.31206 519.33124Q222.95268 519.58124 222.7808 520.2375L221.74956 520.09686Q221.89018 519.4406 222.2183 519.03436Q222.54643 518.6281 223.1558 518.40936Q223.76518 518.1906 224.56206 518.1906Q225.35893 518.1906 225.85893 518.3781Q226.35893 518.5656 226.5933 518.84686Q226.82768 519.1281 226.92143 519.5656Q226.9683 519.83124 226.9683 520.53436L226.9683 521.9406Q226.9683 523.40936 227.0308 523.8Q227.10893 524.1906 227.31206 524.55L226.20268 524.55Q226.04643 524.22186 225.99956 523.78436ZM225.9058 521.425Q225.32768 521.65936 224.18706 521.83124Q223.5308 521.925 223.26518 522.05Q222.99956 522.15936 222.8433 522.3781Q222.70268 522.59686 222.70268 522.8781Q222.70268 523.3 223.01518 523.58124Q223.3433 523.8625 223.95268 523.8625Q224.56206 523.8625 225.0308 523.59686Q225.51518 523.33124 225.73393 522.8625Q225.9058 522.5031 225.9058 521.8156L225.9058 521.425ZM228.51518 522.6906L229.54643 522.53436Q229.64018 523.15936 230.0308 523.4875Q230.43706 523.8156 231.17143 523.8156Q231.89018 523.8156 232.23393 523.53436Q232.5933 523.2375 232.5933 522.83124Q232.5933 522.47186 232.2808 522.26874Q232.06206 522.1281 231.20268 521.90936Q230.04643 521.6125 229.5933 521.40936Q229.1558 521.1906 228.92143 520.8156Q228.68706 520.4406 228.68706 519.97186Q228.68706 519.5656 228.87456 519.20624Q229.06206 518.84686 229.39018 518.6125Q229.64018 518.4406 230.06206 518.3156Q230.48393 518.1906 230.98393 518.1906Q231.70268 518.1906 232.24956 518.40936Q232.81206 518.6125 233.07768 518.97186Q233.3433 519.33124 233.43706 519.925L232.4058 520.0656Q232.3433 519.59686 231.99956 519.33124Q231.67143 519.05 231.04643 519.05Q230.32768 519.05 230.01518 519.3Q229.70268 519.53436 229.70268 519.8625Q229.70268 520.0656 229.82768 520.22186Q229.9683 520.39374 230.23393 520.5031Q230.39018 520.5656 231.17143 520.76874Q232.29643 521.08124 232.73393 521.26874Q233.17143 521.45624 233.42143 521.8156Q233.67143 522.175 233.67143 522.72186Q233.67143 523.2531 233.35893 523.72186Q233.06206 524.175 232.48393 524.4406Q231.9058 524.6906 231.17143 524.6906Q229.95268 524.6906 229.31206 524.1906Q228.68706 523.675 228.51518 522.6906ZM235.93706 524.55L235.93706 518.33124L236.87456 518.33124L236.87456 519.20624Q237.17143 518.7375 237.6558 518.47186Q238.14018 518.1906 238.76518 518.1906Q239.45268 518.1906 239.89018 518.47186Q240.3433 518.7531 240.51518 519.26874Q241.26518 518.1906 242.43706 518.1906Q243.37456 518.1906 243.85893 518.70624Q244.35893 519.20624 244.35893 520.28436L244.35893 524.55L243.31206 524.55L243.31206 520.6281Q243.31206 520.0031 243.20268 519.72186Q243.10893 519.4406 242.8433 519.26874Q242.57768 519.09686 242.20268 519.09686Q241.54643 519.09686 241.10893 519.53436Q240.68706 519.97186 240.68706 520.9406L240.68706 524.55L239.62456 524.55L239.62456 520.5031Q239.62456 519.8 239.35893 519.45624Q239.10893 519.09686 238.5308 519.09686Q238.07768 519.09686 237.70268 519.33124Q237.32768 519.5656 237.1558 520.01874Q236.98393 520.47186 236.98393 521.3156L236.98393 524.55L235.93706 524.55ZM246.51518 521.97186L246.51518 520.90936L249.76518 520.90936L249.76518 521.97186L246.51518 521.97186ZM250.92143 524.55L250.92143 518.33124L251.87456 518.33124L251.87456 519.26874Q252.23393 518.6125 252.5308 518.40936Q252.8433 518.1906 253.2183 518.1906Q253.74956 518.1906 254.29643 518.51874L253.93706 519.5031Q253.54643 519.26874 253.17143 519.26874Q252.81206 519.26874 252.5308 519.4875Q252.26518 519.6906 252.1558 520.0656Q251.9683 520.6281 251.9683 521.28436L251.9683 524.55L250.92143 524.55ZM254.51518 522.6906L255.54643 522.53436Q255.64018 523.15936 256.03082 523.4875Q256.43707 523.8156 257.17145 523.8156Q257.8902 523.8156 258.23395 523.53436Q258.59332 523.2375 258.59332 522.83124Q258.59332 522.47186 258.28082 522.26874Q258.06207 522.1281 257.2027 521.90936Q256.04645 521.6125 255.5933 521.40936Q255.1558 521.1906 254.92143 520.8156Q254.68706 520.4406 254.68706 519.97186Q254.68706 519.5656 254.87456 519.20624Q255.06206 518.84686 255.39018 518.6125Q255.64018 518.4406 256.06207 518.3156Q256.48395 518.1906 256.98395 518.1906Q257.7027 518.1906 258.24957 518.40936Q258.81207 518.6125 259.0777 518.97186Q259.34332 519.33124 259.43707 519.925L258.40582 520.0656Q258.34332 519.59686 257.99957 519.33124Q257.67145 519.05 257.04645 519.05Q256.3277 519.05 256.0152 519.3Q255.70268 519.53436 255.70268 519.8625Q255.70268 520.0656 255.82768 520.22186Q255.9683 520.39374 256.23395 520.5031Q256.3902 520.5656 257.17145 520.76874Q258.29645 521.08124 258.73395 521.26874Q259.17145 521.45624 259.42145 521.8156Q259.67145 522.175 259.67145 522.72186Q259.67145 523.2531 259.35895 523.72186Q259.06207 524.175 258.48395 524.4406Q257.90582 524.6906 257.17145 524.6906Q255.95268 524.6906 255.31206 524.1906Q254.68706 523.675 254.51518 522.6906Z" fill-rule="nonzero"/><path fill="#000000" d="M307.35938 523.78436Q306.76562 524.28436 306.21875 524.4875Q305.6875 524.6906 305.0625 524.6906Q304.03125 524.6906 303.48438 524.1906Q302.9375 523.6906 302.9375 522.90936Q302.9375 522.45624 303.14062 522.08124Q303.34375 521.6906 303.6875 521.47186Q304.03125 521.2375 304.45312 521.1281Q304.75 521.03436 305.39062 520.95624Q306.65625 520.8156 307.26562 520.59686Q307.26562 520.3781 307.26562 520.33124Q307.26562 519.675 306.96875 519.40936Q306.5625 519.0656 305.76562 519.0656Q305.03125 519.0656 304.67188 519.33124Q304.3125 519.58124 304.14062 520.2375L303.10938 520.09686Q303.25 519.4406 303.57812 519.03436Q303.90625 518.6281 304.51562 518.40936Q305.125 518.1906 305.92188 518.1906Q306.71875 518.1906 307.21875 518.3781Q307.71875 518.5656 307.95312 518.84686Q308.1875 519.1281 308.28125 519.5656Q308.32812 519.83124 308.32812 520.53436L308.32812 521.9406Q308.32812 523.40936 308.39062 523.8Q308.46875 524.1906 308.67188 524.55L307.5625 524.55Q307.40625 524.22186 307.35938 523.78436ZM307.26562 521.425Q306.6875 521.65936 305.54688 521.83124Q304.89062 521.925 304.625 522.05Q304.35938 522.15936 304.20312 522.3781Q304.0625 522.59686 304.0625 522.8781Q304.0625 523.3 304.375 523.58124Q304.70312 523.8625 305.3125 523.8625Q305.92188 523.8625 306.39062 523.59686Q306.875 523.33124 307.09375 522.8625Q307.26562 522.5031 307.26562 521.8156L307.26562 521.425ZM314.32812 524.55L314.32812 523.76874Q313.73438 524.6906 312.59375 524.6906Q311.84375 524.6906 311.21875 524.28436Q310.59375 523.8625 310.25 523.1281Q309.90625 522.39374 309.90625 521.4406Q309.90625 520.51874 310.21875 519.7531Q310.53125 518.9875 311.15625 518.59686Q311.78125 518.1906 312.54688 518.1906Q313.10938 518.1906 313.54688 518.425Q313.98438 518.65936 314.26562 519.03436L314.26562 515.95624L315.3125 515.95624L315.3125 524.55L314.32812 524.55ZM311.0 521.4406Q311.0 522.64374 311.5 523.2375Q312.0 523.8156 312.6875 523.8156Q313.375 523.8156 313.85938 523.2531Q314.34375 522.6906 314.34375 521.53436Q314.34375 520.2531 313.84375 519.65936Q313.35938 519.0656 312.64062 519.0656Q311.9375 519.0656 311.46875 519.64374Q311.0 520.20624 311.0 521.4406ZM321.32812 524.55L321.32812 523.76874Q320.73438 524.6906 319.59375 524.6906Q318.84375 524.6906 318.21875 524.28436Q317.59375 523.8625 317.25 523.1281Q316.90625 522.39374 316.90625 521.4406Q316.90625 520.51874 317.21875 519.7531Q317.53125 518.9875 318.15625 518.59686Q318.78125 518.1906 319.54688 518.1906Q320.10938 518.1906 320.54688 518.425Q320.98438 518.65936 321.26562 519.03436L321.26562 515.95624L322.3125 515.95624L322.3125 524.55L321.32812 524.55ZM318.0 521.4406Q318.0 522.64374 318.5 523.2375Q319.0 523.8156 319.6875 523.8156Q320.375 523.8156 320.85938 523.2531Q321.34375 522.6906 321.34375 521.53436Q321.34375 520.2531 320.84375 519.65936Q320.35938 519.0656 319.64062 519.0656Q318.9375 519.0656 318.46875 519.64374Q318.0 520.20624 318.0 521.4406ZM323.90625 521.4406Q323.90625 519.70624 324.85938 518.8781Q325.65625 518.1906 326.8125 518.1906Q328.09375 518.1906 328.90625 519.03436Q329.73438 519.8625 329.73438 521.34686Q329.73438 522.55 329.375 523.2375Q329.01562 523.925 328.3125 524.3156Q327.625 524.6906 326.8125 524.6906Q325.51562 524.6906 324.70312 523.8625Q323.90625 523.01874 323.90625 521.4406ZM324.98438 521.4406Q324.98438 522.6281 325.5 523.22186Q326.03125 523.8156 326.8125 523.8156Q327.60938 523.8156 328.125 523.22186Q328.64062 522.6281 328.64062 521.40936Q328.64062 520.2531 328.10938 519.65936Q327.59375 519.0656 326.8125 519.0656Q326.03125 519.0656 325.5 519.65936Q324.98438 520.2375 324.98438 521.4406ZM331.29688 524.55L331.29688 518.33124L332.23438 518.33124L332.23438 519.20624Q332.92188 518.1906 334.21875 518.1906Q334.78125 518.1906 335.25 518.39374Q335.73438 518.59686 335.96875 518.925Q336.20312 519.2531 336.29688 519.6906Q336.34375 519.9875 336.34375 520.72186L336.34375 524.55L335.29688 524.55L335.29688 520.76874Q335.29688 520.1125 335.17188 519.8Q335.04688 519.4875 334.73438 519.3Q334.42188 519.09686 334.0 519.09686Q333.32812 519.09686 332.82812 519.53436Q332.34375 519.95624 332.34375 521.14374L332.34375 524.55L331.29688 524.55ZM337.875 521.97186L337.875 520.90936L341.125 520.90936L341.125 521.97186L337.875 521.97186ZM342.28125 524.55L342.28125 518.33124L343.23438 518.33124L343.23438 519.26874Q343.59375 518.6125 343.89062 518.40936Q344.20312 518.1906 344.57812 518.1906Q345.10938 518.1906 345.65625 518.51874L345.29688 519.5031Q344.90625 519.26874 344.53125 519.26874Q344.17188 519.26874 343.89062 519.4875Q343.625 519.6906 343.51562 520.0656Q343.32812 520.6281 343.32812 521.28436L343.32812 524.55L342.28125 524.55ZM345.875 522.6906L346.90625 522.53436Q347.0 523.15936 347.39062 523.4875Q347.79688 523.8156 348.53125 523.8156Q349.25 523.8156 349.59375 523.53436Q349.95312 523.2375 349.95312 522.83124Q349.95312 522.47186 349.64062 522.26874Q349.42188 522.1281 348.5625 521.90936Q347.40625 521.6125 346.95312 521.40936Q346.51562 521.1906 346.28125 520.8156Q346.04688 520.4406 346.04688 519.97186Q346.04688 519.5656 346.23438 519.20624Q346.42188 518.84686 346.75 518.6125Q347.0 518.4406 347.42188 518.3156Q347.84375 518.1906 348.34375 518.1906Q349.0625 518.1906 349.60938 518.40936Q350.17188 518.6125 350.4375 518.97186Q350.70312 519.33124 350.79688 519.925L349.76562 520.0656Q349.70312 519.59686 349.35938 519.33124Q349.03125 519.05 348.40625 519.05Q347.6875 519.05 347.375 519.3Q347.0625 519.53436 347.0625 519.8625Q347.0625 520.0656 347.1875 520.22186Q347.32812 520.39374 347.59375 520.5031Q347.75 520.5656 348.53125 520.76874Q349.65625 521.08124 350.09375 521.26874Q350.53125 521.45624 350.78125 521.8156Q351.03125 522.175 351.03125 522.72186Q351.03125 523.2531 350.71875 523.72186Q350.42188 524.175 349.84375 524.4406Q349.26562 524.6906 348.53125 524.6906Q347.3125 524.6906 346.67188 524.1906Q346.04688 523.675 345.875 522.6906Z" fill-rule="nonzero"/><path fill="#000000" d="M400.71918 523.78436Q400.12543 524.28436 399.57855 524.4875Q399.0473 524.6906 398.4223 524.6906Q397.39105 524.6906 396.84418 524.1906Q396.2973 523.6906 396.2973 522.90936Q396.2973 522.45624 396.50043 522.08124Q396.70355 521.6906 397.0473 521.47186Q397.39105 521.2375 397.81293 521.1281Q398.1098 521.03436 398.75043 520.95624Q400.01605 520.8156 400.62543 520.59686Q400.62543 520.3781 400.62543 520.33124Q400.62543 519.675 400.32855 519.40936Q399.9223 519.0656 399.12543 519.0656Q398.39105 519.0656 398.03168 519.33124Q397.6723 519.58124 397.50043 520.2375L396.46918 520.09686Q396.6098 519.4406 396.93793 519.03436Q397.26605 518.6281 397.87543 518.40936Q398.4848 518.1906 399.28168 518.1906Q400.07855 518.1906 400.57855 518.3781Q401.07855 518.5656 401.31293 518.84686Q401.5473 519.1281 401.64105 519.5656Q401.68793 519.83124 401.68793 520.53436L401.68793 521.9406Q401.68793 523.40936 401.75043 523.8Q401.82855 524.1906 402.03168 524.55L400.9223 524.55Q400.76605 524.22186 400.71918 523.78436ZM400.62543 521.425Q400.0473 521.65936 398.90668 521.83124Q398.25043 521.925 397.9848 522.05Q397.71918 522.15936 397.56293 522.3781Q397.4223 522.59686 397.4223 522.8781Q397.4223 523.3 397.7348 523.58124Q398.06293 523.8625 398.6723 523.8625Q399.28168 523.8625 399.75043 523.59686Q400.2348 523.33124 400.45355 522.8625Q400.62543 522.5031 400.62543 521.8156L400.62543 521.425ZM407.68793 524.55L407.68793 523.76874Q407.09418 524.6906 405.95355 524.6906Q405.20355 524.6906 404.57855 524.28436Q403.95355 523.8625 403.6098 523.1281Q403.26605 522.39374 403.26605 521.4406Q403.26605 520.51874 403.57855 519.7531Q403.89105 518.9875 404.51605 518.59686Q405.14105 518.1906 405.90668 518.1906Q406.46918 518.1906 406.90668 518.425Q407.34418 518.65936 407.62543 519.03436L407.62543 515.95624L408.6723 515.95624L408.6723 524.55L407.68793 524.55ZM404.3598 521.4406Q404.3598 522.64374 404.8598 523.2375Q405.3598 523.8156 406.0473 523.8156Q406.7348 523.8156 407.21918 523.2531Q407.70355 522.6906 407.70355 521.53436Q407.70355 520.2531 407.20355 519.65936Q406.71918 519.0656 406.00043 519.0656Q405.2973 519.0656 404.82855 519.64374Q404.3598 520.20624 404.3598 521.4406ZM414.68793 524.55L414.68793 523.76874Q414.09418 524.6906 412.95355 524.6906Q412.20355 524.6906 411.57855 524.28436Q410.95355 523.8625 410.6098 523.1281Q410.26605 522.39374 410.26605 521.4406Q410.26605 520.51874 410.57855 519.7531Q410.89105 518.9875 411.51605 518.59686Q412.14105 518.1906 412.90668 518.1906Q413.46918 518.1906 413.90668 518.425Q414.34418 518.65936 414.62543 519.03436L414.62543 515.95624L415.6723 515.95624L415.6723 524.55L414.68793 524.55ZM411.3598 521.4406Q411.3598 522.64374 411.8598 523.2375Q412.3598 523.8156 413.0473 523.8156Q413.7348 523.8156 414.21918 523.2531Q414.70355 522.6906 414.70355 521.53436Q414.70355 520.2531 414.20355 519.65936Q413.71918 519.0656 413.00043 519.0656Q412.2973 519.0656 411.82855 519.64374Q411.3598 520.20624 411.3598 521.4406ZM417.26605 521.4406Q417.26605 519.70624 418.21918 518.8781Q419.01605 518.1906 420.1723 518.1906Q421.45355 518.1906 422.26605 519.03436Q423.09418 519.8625 423.09418 521.34686Q423.09418 522.55 422.7348 523.2375Q422.37543 523.925 421.6723 524.3156Q420.9848 524.6906 420.1723 524.6906Q418.87543 524.6906 418.06293 523.8625Q417.26605 523.01874 417.26605 521.4406ZM418.34418 521.4406Q418.34418 522.6281 418.8598 523.22186Q419.39105 523.8156 420.1723 523.8156Q420.96918 523.8156 421.4848 523.22186Q422.00043 522.6281 422.00043 521.40936Q422.00043 520.2531 421.46918 519.65936Q420.95355 519.0656 420.1723 519.0656Q419.39105 519.0656 418.8598 519.65936Q418.34418 520.2375 418.34418 521.4406ZM424.65668 524.55L424.65668 518.33124L425.59418 518.33124L425.59418 519.20624Q426.28168 518.1906 427.57855 518.1906Q428.14105 518.1906 428.6098 518.39374Q429.09418 518.59686 429.32855 518.925Q429.56293 519.2531 429.65668 519.6906Q429.70355 519.9875 429.70355 520.72186L429.70355 524.55L428.65668 524.55L428.65668 520.76874Q428.65668 520.1125 428.53168 519.8Q428.40668 519.4875 428.09418 519.3Q427.78168 519.09686 427.3598 519.09686Q426.68793 519.09686 426.18793 519.53436Q425.70355 519.95624 425.70355 521.14374L425.70355 524.55L424.65668 524.55ZM431.2348 521.97186L431.2348 520.90936L434.4848 520.90936L434.4848 521.97186L431.2348 521.97186ZM439.71918 522.26874L440.75043 522.40936Q440.57855 523.47186 439.87543 524.08124Q439.1723 524.6906 438.15668 524.6906Q436.87543 524.6906 436.09418 523.8625Q435.32855 523.01874 435.32855 521.45624Q435.32855 520.45624 435.65668 519.70624Q436.00043 518.9406 436.6723 518.5656Q437.3598 518.1906 438.1723 518.1906Q439.1723 518.1906 439.81293 518.70624Q440.46918 519.20624 440.65668 520.15936L439.62543 520.3156Q439.4848 519.6906 439.1098 519.3781Q438.7348 519.05 438.20355 519.05Q437.40668 519.05 436.90668 519.6281Q436.40668 520.1906 436.40668 521.425Q436.40668 522.6906 436.89105 523.2531Q437.37543 523.8156 438.14105 523.8156Q438.76605 523.8156 439.1723 523.4406Q439.59418 523.0656 439.71918 522.26874Z" fill-rule="nonzero"/><path fill="#000000" d="M485.2665 524.55L485.2665 519.14374L484.329 519.14374L484.329 518.33124L485.2665 518.33124L485.2665 517.65936Q485.2665 517.03436 485.3759 516.7375Q485.53214 516.3156 485.90714 516.0656Q486.29776 515.8156 486.98526 515.8156Q487.4384 515.8156 487.96964 515.925L487.8134 516.83124Q487.48526 516.78436 487.1884 516.78436Q486.704 516.78436 486.5009 516.9875Q486.3134 517.1906 486.3134 517.7531L486.3134 518.33124L487.53214 518.33124L487.53214 519.14374L486.3134 519.14374L486.3134 524.55L485.2665 524.55ZM488.2665 524.55L488.2665 519.14374L487.329 519.14374L487.329 518.33124L488.2665 518.33124L488.2665 517.65936Q488.2665 517.03436 488.3759 516.7375Q488.53214 516.3156 488.90714 516.0656Q489.29776 515.8156 489.98526 515.8156Q490.4384 515.8156 490.96964 515.925L490.8134 516.83124Q490.48526 516.78436 490.1884 516.78436Q489.704 516.78436 489.5009 516.9875Q489.3134 517.1906 489.3134 517.7531L489.3134 518.33124L490.53214 518.33124L490.53214 519.14374L489.3134 519.14374L489.3134 524.55L488.2665 524.55ZM491.0165 517.175L491.0165 515.95624L492.079 515.95624L492.079 517.175L491.0165 517.175ZM491.0165 524.55L491.0165 518.33124L492.079 518.33124L492.079 524.55L491.0165 524.55ZM493.59464 521.97186L493.59464 520.90936L496.84464 520.90936L496.84464 521.97186L493.59464 521.97186ZM498.0165 524.55L498.0165 515.95624L499.079 515.95624L499.079 520.8625L501.5634 518.33124L502.9384 518.33124L500.54776 520.6281L503.17276 524.55L501.8759 524.55L499.8134 521.3625L499.079 522.08124L499.079 524.55L498.0165 524.55ZM503.6259 521.4406Q503.6259 519.70624 504.579 518.8781Q505.3759 518.1906 506.53214 518.1906Q507.8134 518.1906 508.6259 519.03436Q509.454 519.8625 509.454 521.34686Q509.454 522.55 509.09464 523.2375Q508.73526 523.925 508.03214 524.3156Q507.34464 524.6906 506.53214 524.6906Q505.23526 524.6906 504.42276 523.8625Q503.6259 523.01874 503.6259 521.4406ZM504.704 521.4406Q504.704 522.6281 505.21964 523.22186Q505.7509 523.8156 506.53214 523.8156Q507.329 523.8156 507.84464 523.22186Q508.36026 522.6281 508.36026 521.40936Q508.36026 520.2531 507.829 519.65936Q507.3134 519.0656 506.53214 519.0656Q505.7509 519.0656 505.21964 519.65936Q504.704 520.2375 504.704 521.4406ZM511.2665 524.55L511.2665 519.14374L510.329 519.14374L510.329 518.33124L511.2665 518.33124L511.2665 517.65936Q511.2665 517.03436 511.3759 516.7375Q511.53214 516.3156 511.90714 516.0656Q512.2977 515.8156 512.9852 515.8156Q513.43835 515.8156 513.9696 515.925L513.81335 516.83124Q513.4852 516.78436 513.18835 516.78436Q512.704 516.78436 512.50085 516.9875Q512.31335 517.1906 512.31335 517.7531L512.31335 518.33124L513.5321 518.33124L513.5321 519.14374L512.31335 519.14374L512.31335 524.55L511.2665 524.55ZM514.2665 524.55L514.2665 519.14374L513.329 519.14374L513.329 518.33124L514.2665 518.33124L514.2665 517.65936Q514.2665 517.03436 514.37585 516.7375Q514.5321 516.3156 514.9071 516.0656Q515.2977 515.8156 515.9852 515.8156Q516.43835 515.8156 516.9696 515.925L516.81335 516.83124Q516.4852 516.78436 516.18835 516.78436Q515.704 516.78436 515.50085 516.9875Q515.31335 517.1906 515.31335 517.7531L515.31335 518.33124L516.5321 518.33124L516.5321 519.14374L515.31335 519.14374L515.31335 524.55L514.2665 524.55ZM517.0165 517.175L517.0165 515.95624L518.079 515.95624L518.079 517.175L517.0165 517.175ZM517.0165 524.55L517.0165 518.33124L518.079 518.33124L518.079 524.55L517.0165 524.55ZM519.5946 521.97186L519.5946 520.90936L522.8446 520.90936L522.8446 521.97186L519.5946 521.97186ZM524.00085 524.55L524.00085 518.33124L524.954 518.33124L524.954 519.26874Q525.31335 518.6125 525.6102 518.40936Q525.9227 518.1906 526.2977 518.1906Q526.829 518.1906 527.37585 518.51874L527.0165 519.5031Q526.62585 519.26874 526.25085 519.26874Q525.8915 519.26874 525.6102 519.4875Q525.3446 519.6906 525.2352 520.0656Q525.0477 520.6281 525.0477 521.28436L525.0477 524.55L524.00085 524.55ZM527.5946 522.6906L528.62585 522.53436Q528.7196 523.15936 529.1102 523.4875Q529.5165 523.8156 530.25085 523.8156Q530.9696 523.8156 531.31335 523.53436Q531.6727 523.2375 531.6727 522.83124Q531.6727 522.47186 531.3602 522.26874Q531.1415 522.1281 530.2821 521.90936Q529.12585 521.6125 528.6727 521.40936Q528.2352 521.1906 528.00085 520.8156Q527.7665 520.4406 527.7665 519.97186Q527.7665 519.5656 527.954 519.20624Q528.1415 518.84686 528.4696 518.6125Q528.7196 518.4406 529.1415 518.3156Q529.56335 518.1906 530.06335 518.1906Q530.7821 518.1906 531.329 518.40936Q531.8915 518.6125 532.1571 518.97186Q532.4227 519.33124 532.5165 519.925L531.4852 520.0656Q531.4227 519.59686 531.079 519.33124Q530.75085 519.05 530.12585 519.05Q529.4071 519.05 529.0946 519.3Q528.7821 519.53436 528.7821 519.8625Q528.7821 520.0656 528.9071 520.22186Q529.0477 520.39374 529.31335 520.5031Q529.4696 520.5656 530.25085 520.76874Q531.37585 521.08124 531.81335 521.26874Q532.25085 521.45624 532.50085 521.8156Q532.75085 522.175 532.75085 522.72186Q532.75085 523.2531 532.43835 523.72186Q532.1415 524.175 531.56335 524.4406Q530.9852 524.6906 530.25085 524.6906Q529.0321 524.6906 528.3915 524.1906Q527.7665 523.675 527.5946 522.6906Z" fill-rule="nonzero"/><path fill="#757575" d="M30.91875 47.45L30.91875 33.1375L36.29375 33.1375Q37.934376 33.1375 38.91875 33.575Q39.903126 33.996876 40.465626 34.903126Q41.028126 35.809376 41.028126 36.79375Q41.028126 37.715626 40.528126 38.528126Q40.04375 39.340626 39.028126 39.825Q40.325 40.215626 41.028126 41.1375Q41.73125 42.04375 41.73125 43.29375Q41.73125 44.309376 41.29375 45.16875Q40.871876 46.028126 40.246876 46.496876Q39.621876 46.965626 38.684376 47.215626Q37.746876 47.45 36.371876 47.45L30.91875 47.45ZM32.809376 39.153126L35.903126 39.153126Q37.16875 39.153126 37.715626 38.98125Q38.434376 38.7625 38.79375 38.278126Q39.16875 37.778126 39.16875 37.0125Q39.16875 36.309376 38.825 35.7625Q38.48125 35.215626 37.840626 35.028126Q37.215626 34.825 35.66875 34.825L32.809376 34.825L32.809376 39.153126ZM32.809376 45.7625L36.371876 45.7625Q37.29375 45.7625 37.66875 45.684376Q38.325 45.575 38.7625 45.309376Q39.2 45.028126 39.48125 44.5125Q39.7625 43.98125 39.7625 43.29375Q39.7625 42.496876 39.35625 41.903126Q38.95 41.309376 38.215626 41.075Q37.48125 40.840626 36.121876 40.840626L32.809376 40.840626L32.809376 45.7625ZM50.871876 44.10625L52.684376 44.340626Q52.2625 45.91875 51.090626 46.809376Q49.934376 47.684376 48.121876 47.684376Q45.85625 47.684376 44.5125 46.29375Q43.184376 44.8875 43.184376 42.35625Q43.184376 39.73125 44.528126 38.29375Q45.871876 36.840626 48.028126 36.840626Q50.10625 36.840626 51.41875 38.2625Q52.746876 39.66875 52.746876 42.246876Q52.746876 42.403126 52.73125 42.715626L44.996876 42.715626Q45.090626 44.41875 45.965626 45.325Q46.840626 46.23125 48.1375 46.23125Q49.10625 46.23125 49.778126 45.73125Q50.465626 45.215626 50.871876 44.10625ZM45.090626 41.2625L50.8875 41.2625Q50.778126 39.965626 50.23125 39.309376Q49.3875 38.29375 48.04375 38.29375Q46.840626 38.29375 46.0125 39.10625Q45.184376 39.903126 45.090626 41.2625ZM54.7625 47.45L54.7625 37.075L56.35625 37.075L56.35625 38.559376Q57.496876 36.840626 59.653126 36.840626Q60.590626 36.840626 61.371876 37.184376Q62.16875 37.5125 62.559376 38.059376Q62.95 38.60625 63.10625 39.35625Q63.2 39.85625 63.2 41.075L63.2 47.45L61.434376 47.45L61.434376 41.1375Q61.434376 40.059376 61.23125 39.528126Q61.028126 38.996876 60.496876 38.684376Q59.98125 38.371876 59.278126 38.371876Q58.153126 38.371876 57.340626 39.090626Q56.528126 39.79375 56.528126 41.778126L56.528126 47.45L54.7625 47.45ZM71.54375 43.653126L73.2625 43.871876Q72.98125 45.66875 71.80937 46.684376Q70.65312 47.684376 68.95 47.684376Q66.825 47.684376 65.52812 46.29375Q64.23125 44.903126 64.23125 42.309376Q64.23125 40.621876 64.77812 39.371876Q65.34062 38.10625 66.48125 37.48125Q67.62187 36.840626 68.96562 36.840626Q70.65312 36.840626 71.71562 37.7Q72.79375 38.559376 73.10625 40.121876L71.3875 40.3875Q71.15312 39.340626 70.52812 38.825Q69.90312 38.29375 69.02812 38.29375Q67.7 38.29375 66.87187 39.246876Q66.04375 40.2 66.04375 42.246876Q66.04375 44.340626 66.84062 45.29375Q67.6375 46.23125 68.93437 46.23125Q69.96562 46.23125 70.65312 45.60625Q71.35625 44.965626 71.54375 43.653126ZM74.7625 47.45L74.7625 33.1375L76.52812 33.1375L76.52812 38.2625Q77.7625 36.840626 79.6375 36.840626Q80.77812 36.840626 81.62187 37.29375Q82.48125 37.746876 82.84062 38.559376Q83.21562 39.35625 83.21562 40.871876L83.21562 47.45L81.46562 47.45L81.46562 40.871876Q81.46562 39.559376 80.8875 38.965626Q80.30937 38.35625 79.27812 38.35625Q78.49687 38.35625 77.79375 38.7625Q77.10625 39.16875 76.80937 39.871876Q76.52812 40.559376 76.52812 41.778126L76.52812 47.45L74.7625 47.45ZM84.7625 47.45L84.7625 37.075L86.34062 37.075L86.34062 38.528126Q86.825 37.778126 87.6375 37.309376Q88.45 36.840626 89.48125 36.840626Q90.6375 36.840626 91.37187 37.325Q92.10625 37.79375 92.41875 38.653126Q93.65312 36.840626 95.62187 36.840626Q97.16875 36.840626 97.99687 37.7Q98.825 38.559376 98.825 40.325L98.825 47.45L97.075 47.45L97.075 40.91875Q97.075 39.85625 96.90312 39.403126Q96.73125 38.934376 96.27812 38.653126Q95.84062 38.371876 95.23125 38.371876Q94.1375 38.371876 93.40312 39.10625Q92.68437 39.825 92.68437 41.41875L92.68437 47.45L90.93437 47.45L90.93437 40.715626Q90.93437 39.54375 90.49687 38.965626Q90.075 38.371876 89.09062 38.371876Q88.35625 38.371876 87.71562 38.7625Q87.09062 39.153126 86.80937 39.903126Q86.52812 40.653126 86.52812 42.075L86.52812 47.45L84.7625 47.45ZM107.54375 46.16875Q106.55937 46.996876 105.65312 47.340626Q104.74687 47.684376 103.71562 47.684376Q102.0125 47.684376 101.09062 46.85625Q100.16875 46.0125 100.16875 44.715626Q100.16875 43.95 100.5125 43.325Q100.87187 42.7 101.43437 42.325Q101.99687 41.934376 102.7 41.73125Q103.21562 41.60625 104.2625 41.465626Q106.3875 41.215626 107.3875 40.871876Q107.40312 40.5125 107.40312 40.403126Q107.40312 39.340626 106.90312 38.8875Q106.23125 38.29375 104.90312 38.29375Q103.65312 38.29375 103.05937 38.73125Q102.48125 39.16875 102.2 40.278126L100.48125 40.04375Q100.71562 38.934376 101.24687 38.2625Q101.77812 37.575 102.79375 37.215626Q103.80937 36.840626 105.15312 36.840626Q106.48125 36.840626 107.30937 37.153126Q108.1375 37.465626 108.52812 37.95Q108.91875 38.41875 109.075 39.1375Q109.16875 39.590626 109.16875 40.7625L109.16875 43.10625Q109.16875 45.559376 109.27812 46.215626Q109.3875 46.85625 109.73125 47.45L107.8875 47.45Q107.62187 46.903126 107.54375 46.16875ZM107.3875 42.246876Q106.43437 42.6375 104.5125 42.903126Q103.43437 43.059376 102.98125 43.2625Q102.54375 43.45 102.29375 43.825Q102.04375 44.2 102.04375 44.66875Q102.04375 45.371876 102.575 45.840626Q103.10625 46.309376 104.1375 46.309376Q105.15312 46.309376 105.93437 45.871876Q106.73125 45.41875 107.10625 44.653126Q107.3875 44.04375 107.3875 42.8875L107.3875 42.246876ZM111.74687 47.45L111.74687 37.075L113.325 37.075L113.325 38.653126Q113.93437 37.54375 114.45 37.2Q114.96562 36.840626 115.575 36.840626Q116.46562 36.840626 117.3875 37.403126L116.77812 39.04375Q116.1375 38.653126 115.49687 38.653126Q114.91875 38.653126 114.45 39.0125Q113.99687 39.35625 113.79375 39.965626Q113.5125 40.903126 113.5125 42.0125L113.5125 47.45L111.74687 47.45ZM118.77812 47.45L118.77812 33.1375L120.54375 33.1375L120.54375 41.29375L124.7 37.075L126.96562 37.075L123.0125 40.91875L127.37187 47.45L125.2 47.45L121.77812 42.153126L120.54375 43.340626L120.54375 47.45L118.77812 47.45ZM134.12187 42.2625Q134.12187 39.3875 135.71562 37.996876Q137.05937 36.840626 138.98125 36.840626Q141.12187 36.840626 142.46562 38.246876Q143.825 39.653126 143.825 42.121876Q143.825 44.121876 143.23125 45.278126Q142.6375 46.41875 141.48125 47.059376Q140.34062 47.684376 138.98125 47.684376Q136.79375 47.684376 135.45 46.29375Q134.12187 44.8875 134.12187 42.2625ZM135.91875 42.2625Q135.91875 44.2625 136.77812 45.246876Q137.65312 46.23125 138.98125 46.23125Q140.29375 46.23125 141.15312 45.246876Q142.02812 44.246876 142.02812 42.2Q142.02812 40.278126 141.15312 39.29375Q140.27812 38.29375 138.98125 38.29375Q137.65312 38.29375 136.77812 39.29375Q135.91875 40.278126 135.91875 42.2625ZM146.18437 47.45L146.18437 38.45L144.6375 38.45L144.6375 37.075L146.18437 37.075L146.18437 35.98125Q146.18437 34.934376 146.37187 34.41875Q146.62187 33.73125 147.2625 33.309376Q147.90312 32.8875 149.05937 32.8875Q149.80937 32.8875 150.7 33.059376L150.43437 34.590626Q149.8875 34.496876 149.40312 34.496876Q148.60625 34.496876 148.2625 34.840626Q147.93437 35.184376 147.93437 36.121876L147.93437 37.075L149.96562 37.075L149.96562 38.45L147.93437 38.45L147.93437 47.45L146.18437 47.45ZM161.12187 51.653126Q159.66875 49.825 158.66875 47.371876Q157.66875 44.903126 157.66875 42.2625Q157.66875 39.934376 158.41875 37.809376Q159.29375 35.340626 161.12187 32.8875L162.3875 32.8875Q161.2 34.91875 160.825 35.79375Q160.23125 37.1375 159.8875 38.60625Q159.46562 40.434376 159.46562 42.278126Q159.46562 46.965626 162.3875 51.653126L161.12187 51.653126ZM164.05937 44.35625L165.80937 44.075Q165.95 45.121876 166.62187 45.684376Q167.29375 46.23125 168.49687 46.23125Q169.7 46.23125 170.27812 45.746876Q170.87187 45.246876 170.87187 44.590626Q170.87187 43.996876 170.35625 43.653126Q169.99687 43.41875 168.55937 43.059376Q166.62187 42.559376 165.87187 42.215626Q165.1375 41.85625 164.74687 41.23125Q164.35625 40.590626 164.35625 39.825Q164.35625 39.1375 164.66875 38.54375Q164.99687 37.95 165.54375 37.559376Q165.95 37.2625 166.65312 37.059376Q167.37187 36.840626 168.18437 36.840626Q169.40312 36.840626 170.325 37.2Q171.24687 37.54375 171.68437 38.153126Q172.12187 38.746876 172.29375 39.746876L170.575 39.98125Q170.45 39.184376 169.8875 38.746876Q169.325 38.29375 168.30937 38.29375Q167.09062 38.29375 166.575 38.7Q166.05937 39.090626 166.05937 39.621876Q166.05937 39.965626 166.27812 40.246876Q166.48125 40.528126 166.95 40.715626Q167.21562 40.809376 168.49687 41.153126Q170.37187 41.653126 171.10625 41.98125Q171.84062 42.29375 172.2625 42.903126Q172.68437 43.496876 172.68437 44.403126Q172.68437 45.278126 172.16875 46.059376Q171.65312 46.840626 170.68437 47.2625Q169.71562 47.684376 168.49687 47.684376Q166.48125 47.684376 165.41875 46.840626Q164.35625 45.996876 164.05937 44.35625ZM174.7625 51.41875L174.7625 37.075L176.37187 37.075L176.37187 38.41875Q176.93437 37.6375 177.6375 37.246876Q178.35625 36.840626 179.37187 36.840626Q180.7 36.840626 181.71562 37.528126Q182.73125 38.215626 183.24687 39.465626Q183.77812 40.7 183.77812 42.184376Q183.77812 43.778126 183.2 45.059376Q182.6375 46.325 181.54375 47.0125Q180.45 47.684376 179.24687 47.684376Q178.37187 47.684376 177.66875 47.309376Q176.98125 46.934376 176.52812 46.371876L176.52812 51.41875L174.7625 51.41875ZM176.35625 42.325Q176.35625 44.325 177.16875 45.278126Q177.98125 46.23125 179.1375 46.23125Q180.30937 46.23125 181.1375 45.246876Q181.98125 44.2625 181.98125 42.16875Q181.98125 40.2 181.15312 39.215626Q180.34062 38.215626 179.21562 38.215626Q178.09062 38.215626 177.21562 39.278126Q176.35625 40.325 176.35625 42.325ZM185.74687 47.45L185.74687 37.075L187.325 37.075L187.325 38.653126Q187.93437 37.54375 188.45 37.2Q188.96562 36.840626 189.575 36.840626Q190.46562 36.840626 191.3875 37.403126L190.77812 39.04375Q190.1375 38.653126 189.49687 38.653126Q188.91875 38.653126 188.45 39.0125Q187.99687 39.35625 187.79375 39.965626Q187.5125 40.903126 187.5125 42.0125L187.5125 47.45L185.74687 47.45ZM199.87187 44.10625L201.68437 44.340626Q201.2625 45.91875 200.09062 46.809376Q198.93437 47.684376 197.12187 47.684376Q194.85625 47.684376 193.5125 46.29375Q192.18437 44.8875 192.18437 42.35625Q192.18437 39.73125 193.52812 38.29375Q194.87187 36.840626 197.02812 36.840626Q199.10625 36.840626 200.41875 38.2625Q201.74687 39.66875 201.74687 42.246876Q201.74687 42.403126 201.73125 42.715626L193.99687 42.715626Q194.09062 44.41875 194.96562 45.325Q195.84062 46.23125 197.1375 46.23125Q198.10625 46.23125 198.77812 45.73125Q199.46562 45.215626 199.87187 44.10625ZM194.09062 41.2625L199.8875 41.2625Q199.77812 39.965626 199.23125 39.309376Q198.3875 38.29375 197.04375 38.29375Q195.84062 38.29375 195.0125 39.10625Q194.18437 39.903126 194.09062 41.2625ZM210.54375 46.16875Q209.55937 46.996876 208.65312 47.340626Q207.74687 47.684376 206.71562 47.684376Q205.0125 47.684376 204.09062 46.85625Q203.16875 46.0125 203.16875 44.715626Q203.16875 43.95 203.5125 43.325Q203.87187 42.7 204.43437 42.325Q204.99687 41.934376 205.7 41.73125Q206.21562 41.60625 207.2625 41.465626Q209.3875 41.215626 210.3875 40.871876Q210.40312 40.5125 210.40312 40.403126Q210.40312 39.340626 209.90312 38.8875Q209.23125 38.29375 207.90312 38.29375Q206.65312 38.29375 206.05937 38.73125Q205.48125 39.16875 205.2 40.278126L203.48125 40.04375Q203.71562 38.934376 204.24687 38.2625Q204.77812 37.575 205.79375 37.215626Q206.80937 36.840626 208.15312 36.840626Q209.48125 36.840626 210.30937 37.153126Q211.1375 37.465626 211.52812 37.95Q211.91875 38.41875 212.075 39.1375Q212.16875 39.590626 212.16875 40.7625L212.16875 43.10625Q212.16875 45.559376 212.27812 46.215626Q212.3875 46.85625 212.73125 47.45L210.8875 47.45Q210.62187 46.903126 210.54375 46.16875ZM210.3875 42.246876Q209.43437 42.6375 207.5125 42.903126Q206.43437 43.059376 205.98125 43.2625Q205.54375 43.45 205.29375 43.825Q205.04375 44.2 205.04375 44.66875Q205.04375 45.371876 205.575 45.840626Q206.10625 46.309376 207.1375 46.309376Q208.15312 46.309376 208.93437 45.871876Q209.73125 45.41875 210.10625 44.653126Q210.3875 44.04375 210.3875 42.8875L210.3875 42.246876ZM221.49687 47.45L221.49687 46.1375Q220.5125 47.684376 218.59062 47.684376Q217.35625 47.684376 216.30937 46.996876Q215.27812 46.309376 214.7 45.090626Q214.1375 43.871876 214.1375 42.278126Q214.1375 40.715626 214.65312 39.45Q215.16875 38.184376 216.2 37.5125Q217.24687 36.840626 218.5125 36.840626Q219.45 36.840626 220.18437 37.246876Q220.91875 37.6375 221.3875 38.2625L221.3875 33.1375L223.12187 33.1375L223.12187 47.45L221.49687 47.45ZM215.93437 42.278126Q215.93437 44.2625 216.77812 45.246876Q217.62187 46.23125 218.7625 46.23125Q219.91875 46.23125 220.71562 45.29375Q221.52812 44.35625 221.52812 42.41875Q221.52812 40.29375 220.7 39.29375Q219.8875 38.29375 218.68437 38.29375Q217.5125 38.29375 216.71562 39.2625Q215.93437 40.215626 215.93437 42.278126ZM226.91875 51.653126L225.66875 51.653126Q228.575 46.965626 228.575 42.278126Q228.575 40.434376 228.16875 38.6375Q227.825 37.16875 227.23125 35.825Q226.85625 34.934376 225.66875 32.8875L226.91875 32.8875Q228.7625 35.340626 229.6375 37.809376Q230.3875 39.934376 230.3875 42.2625Q230.3875 44.903126 229.37187 47.371876Q228.37187 49.825 226.91875 51.653126ZM371.1844 47.45L371.1844 38.45L369.6375 38.45L369.6375 37.075L371.1844 37.075L371.1844 35.98125Q371.1844 34.934376 371.3719 34.41875Q371.6219 33.73125 372.2625 33.309376Q372.90314 32.8875 374.0594 32.8875Q374.8094 32.8875 375.7 33.059376L375.4344 34.590626Q374.8875 34.496876 374.40314 34.496876Q373.60626 34.496876 373.2625 34.840626Q372.9344 35.184376 372.9344 36.121876L372.9344 37.075L374.96564 37.075L374.96564 38.45L372.9344 38.45L372.9344 47.45L371.1844 47.45ZM376.7625 47.45L376.7625 37.075L378.35626 37.075L378.35626 38.559376Q379.4969 36.840626 381.65314 36.840626Q382.59064 36.840626 383.3719 37.184376Q384.16876 37.5125 384.5594 38.059376Q384.95 38.60625 385.10626 39.35625Q385.2 39.85625 385.2 41.075L385.2 47.45L383.4344 47.45L383.4344 41.1375Q383.4344 40.059376 383.23126 39.528126Q383.02814 38.996876 382.4969 38.684376Q381.98126 38.371876 381.27814 38.371876Q380.15314 38.371876 379.34064 39.090626Q378.52814 39.79375 378.52814 41.778126L378.52814 47.45L376.7625 47.45ZM399.54376 46.16875Q398.5594 46.996876 397.65314 47.340626Q396.7469 47.684376 395.71564 47.684376Q394.0125 47.684376 393.09064 46.85625Q392.16876 46.0125 392.16876 44.715626Q392.16876 43.95 392.5125 43.325Q392.8719 42.7 393.4344 42.325Q393.9969 41.934376 394.7 41.73125Q395.21564 41.60625 396.2625 41.465626Q398.3875 41.215626 399.3875 40.871876Q399.40314 40.5125 399.40314 40.403126Q399.40314 39.340626 398.90314 38.8875Q398.23126 38.29375 396.90314 38.29375Q395.65314 38.29375 395.0594 38.73125Q394.48126 39.16875 394.2 40.278126L392.48126 40.04375Q392.71564 38.934376 393.2469 38.2625Q393.77814 37.575 394.79376 37.215626Q395.8094 36.840626 397.15314 36.840626Q398.48126 36.840626 399.3094 37.153126Q400.1375 37.465626 400.52814 37.95Q400.91876 38.41875 401.075 39.1375Q401.16876 39.590626 401.16876 40.7625L401.16876 43.10625Q401.16876 45.559376 401.27814 46.215626Q401.3875 46.85625 401.73126 47.45L399.8875 47.45Q399.6219 46.903126 399.54376 46.16875ZM399.3875 42.246876Q398.4344 42.6375 396.5125 42.903126Q395.4344 43.059376 394.98126 43.2625Q394.54376 43.45 394.29376 43.825Q394.04376 44.2 394.04376 44.66875Q394.04376 45.371876 394.575 45.840626Q395.10626 46.309376 396.1375 46.309376Q397.15314 46.309376 397.9344 45.871876Q398.73126 45.41875 399.10626 44.653126Q399.3875 44.04375 399.3875 42.8875L399.3875 42.246876ZM410.4969 47.45L410.4969 46.1375Q409.5125 47.684376 407.59064 47.684376Q406.35626 47.684376 405.3094 46.996876Q404.27814 46.309376 403.7 45.090626Q403.1375 43.871876 403.1375 42.278126Q403.1375 40.715626 403.65314 39.45Q404.16876 38.184376 405.2 37.5125Q406.2469 36.840626 407.5125 36.840626Q408.45 36.840626 409.1844 37.246876Q409.91876 37.6375 410.3875 38.2625L410.3875 33.1375L412.1219 33.1375L412.1219 47.45L410.4969 47.45ZM404.9344 42.278126Q404.9344 44.2625 405.77814 45.246876Q406.6219 46.23125 407.7625 46.23125Q408.91876 46.23125 409.71564 45.29375Q410.52814 44.35625 410.52814 42.41875Q410.52814 40.29375 409.7 39.29375Q408.8875 38.29375 407.6844 38.29375Q406.5125 38.29375 405.71564 39.2625Q404.9344 40.215626 404.9344 42.278126ZM421.4969 47.45L421.4969 46.1375Q420.5125 47.684376 418.59064 47.684376Q417.35626 47.684376 416.3094 46.996876Q415.27814 46.309376 414.7 45.090626Q414.1375 43.871876 414.1375 42.278126Q414.1375 40.715626 414.65314 39.45Q415.16876 38.184376 416.2 37.5125Q417.2469 36.840626 418.5125 36.840626Q419.45 36.840626 420.1844 37.246876Q420.91876 37.6375 421.3875 38.2625L421.3875 33.1375L423.1219 33.1375L423.1219 47.45L421.4969 47.45ZM415.9344 42.278126Q415.9344 44.2625 416.77814 45.246876Q417.6219 46.23125 418.7625 46.23125Q419.91876 46.23125 420.71564 45.29375Q421.52814 44.35625 421.52814 42.41875Q421.52814 40.29375 420.7 39.29375Q419.8875 38.29375 418.6844 38.29375Q417.5125 38.29375 416.71564 39.2625Q415.9344 40.215626 415.9344 42.278126ZM429.1219 51.653126Q427.66876 49.825 426.66876 47.371876Q425.66876 44.903126 425.66876 42.2625Q425.66876 39.934376 426.41876 37.809376Q427.29376 35.340626 429.1219 32.8875L430.3875 32.8875Q429.2 34.91875 428.825 35.79375Q428.23126 37.1375 427.8875 38.60625Q427.46564 40.434376 427.46564 42.278126Q427.46564 46.965626 430.3875 51.653126L429.1219 51.653126ZM433.1844 47.45L433.1844 38.45L431.6375 38.45L431.6375 37.075L433.1844 37.075L433.1844 35.98125Q433.1844 34.934376 433.3719 34.41875Q433.6219 33.73125 434.2625 33.309376Q434.90314 32.8875 436.0594 32.8875Q436.8094 32.8875 437.7 33.059376L437.4344 34.590626Q436.8875 34.496876 436.40314 34.496876Q435.60626 34.496876 435.2625 34.840626Q434.9344 35.184376 434.9344 36.121876L434.9344 37.075L436.96564 37.075L436.96564 38.45L434.9344 38.45L434.9344 47.45L433.1844 47.45ZM438.29376 43.66875L440.04376 43.434376Q440.35626 44.934376 441.075 45.590626Q441.8094 46.246876 442.85626 46.246876Q444.09064 46.246876 444.9344 45.3875Q445.79376 44.528126 445.79376 43.2625Q445.79376 42.04375 444.9969 41.2625Q444.21564 40.48125 442.9969 40.48125Q442.4969 40.48125 441.7625 40.66875L441.95 39.121876Q442.1219 39.153126 442.23126 39.153126Q443.35626 39.153126 444.2469 38.575Q445.15314 37.98125 445.15314 36.7625Q445.15314 35.79375 444.4969 35.153126Q443.84064 34.5125 442.8094 34.5125Q441.79376 34.5125 441.10626 35.16875Q440.41876 35.809376 440.23126 37.090626L438.46564 36.778126Q438.79376 35.0125 439.9344 34.04375Q441.075 33.075 442.77814 33.075Q443.95 33.075 444.9344 33.575Q445.91876 34.075 446.4344 34.95Q446.96564 35.825 446.96564 36.79375Q446.96564 37.715626 446.46564 38.48125Q445.96564 39.246876 444.9969 39.7Q446.2625 39.98125 446.96564 40.91875Q447.66876 41.840626 447.66876 43.215626Q447.66876 45.090626 446.29376 46.403126Q444.9344 47.7 442.84064 47.7Q440.95 47.7 439.7 46.575Q438.46564 45.45 438.29376 43.66875ZM458.5125 45.7625L458.5125 47.45L449.0594 47.45Q449.04376 46.809376 449.2625 46.23125Q449.6219 45.2625 450.41876 44.325Q451.21564 43.3875 452.71564 42.153126Q455.0594 40.246876 455.8719 39.1375Q456.7 38.0125 456.7 37.0125Q456.7 35.965626 455.95 35.246876Q455.2 34.528126 453.9969 34.528126Q452.73126 34.528126 451.96564 35.29375Q451.2 36.059376 451.2 37.403126L449.3875 37.215626Q449.575 35.2 450.77814 34.1375Q451.9969 33.075 454.04376 33.075Q456.09064 33.075 457.29376 34.215626Q458.4969 35.35625 458.4969 37.04375Q458.4969 37.903126 458.1375 38.746876Q457.79376 39.575 456.98126 40.496876Q456.16876 41.403126 454.27814 43.0125Q452.6844 44.340626 452.23126 44.809376Q451.79376 45.278126 451.4969 45.7625L458.5125 45.7625ZM461.23126 47.45L461.23126 45.45L463.23126 45.45L463.23126 47.45Q463.23126 48.559376 462.84064 49.23125Q462.45 49.91875 461.60626 50.278126L461.10626 49.528126Q461.66876 49.29375 461.9344 48.809376Q462.2 48.340626 462.23126 47.45L461.23126 47.45ZM473.1844 47.45L473.1844 38.45L471.6375 38.45L471.6375 37.075L473.1844 37.075L473.1844 35.98125Q473.1844 34.934376 473.3719 34.41875Q473.6219 33.73125 474.2625 33.309376Q474.90314 32.8875 476.0594 32.8875Q476.8094 32.8875 477.7 33.059376L477.4344 34.590626Q476.8875 34.496876 476.40314 34.496876Q475.60626 34.496876 475.2625 34.840626Q474.9344 35.184376 474.9344 36.121876L474.9344 37.075L476.96564 37.075L476.96564 38.45L474.9344 38.45L474.9344 47.45L473.1844 47.45ZM478.29376 43.66875L480.04376 43.434376Q480.35626 44.934376 481.075 45.590626Q481.8094 46.246876 482.85626 46.246876Q484.09064 46.246876 484.9344 45.3875Q485.79376 44.528126 485.79376 43.2625Q485.79376 42.04375 484.9969 41.2625Q484.21564 40.48125 482.9969 40.48125Q482.4969 40.48125 481.7625 40.66875L481.95 39.121876Q482.1219 39.153126 482.23126 39.153126Q483.35626 39.153126 484.2469 38.575Q485.15314 37.98125 485.15314 36.7625Q485.15314 35.79375 484.4969 35.153126Q483.84064 34.5125 482.8094 34.5125Q481.79376 34.5125 481.10626 35.16875Q480.41876 35.809376 480.23126 37.090626L478.46564 36.778126Q478.79376 35.0125 479.9344 34.04375Q481.075 33.075 482.77814 33.075Q483.95 33.075 484.9344 33.575Q485.91876 34.075 486.4344 34.95Q486.96564 35.825 486.96564 36.79375Q486.96564 37.715626 486.46564 38.48125Q485.96564 39.246876 484.9969 39.7Q486.2625 39.98125 486.96564 40.91875Q487.66876 41.840626 487.66876 43.215626Q487.66876 45.090626 486.29376 46.403126Q484.9344 47.7 482.84064 47.7Q480.95 47.7 479.7 46.575Q478.46564 45.45 478.29376 43.66875ZM498.5125 45.7625L498.5125 47.45L489.0594 47.45Q489.04376 46.809376 489.2625 46.23125Q489.6219 45.2625 490.41876 44.325Q491.21564 43.3875 492.71564 42.153126Q495.0594 40.246876 495.8719 39.1375Q496.7 38.0125 496.7 37.0125Q496.7 35.965626 495.95 35.246876Q495.2 34.528126 493.9969 34.528126Q492.73126 34.528126 491.96564 35.29375Q491.2 36.059376 491.2 37.403126L489.3875 37.215626Q489.575 35.2 490.77814 34.1375Q491.9969 33.075 494.04376 33.075Q496.09064 33.075 497.29376 34.215626Q498.4969 35.35625 498.4969 37.04375Q498.4969 37.903126 498.1375 38.746876Q497.79376 39.575 496.98126 40.496876Q496.16876 41.403126 494.27814 43.0125Q492.6844 44.340626 492.23126 44.809376Q491.79376 45.278126 491.4969 45.7625L498.5125 45.7625ZM501.91876 51.653126L500.66876 51.653126Q503.575 46.965626 503.575 42.278126Q503.575 40.434376 503.16876 38.6375Q502.825 37.16875 502.23126 35.825Q501.85626 34.934376 500.66876 32.8875L501.91876 32.8875Q503.7625 35.340626 504.6375 37.809376Q505.3875 39.934376 505.3875 42.2625Q505.3875 44.903126 504.3719 47.371876Q503.3719 49.825 501.91876 51.653126ZM513.09064 43.153126L513.09064 41.3875L518.48126 41.3875L518.48126 43.153126L513.09064 43.153126ZM530.02814 41.184376L520.54376 45.246876L520.54376 43.496876L528.0594 40.371876L520.54376 37.29375L520.54376 35.54375L530.02814 39.54375L530.02814 41.184376ZM539.1844 47.45L539.1844 38.45L537.6375 38.45L537.6375 37.075L539.1844 37.075L539.1844 35.98125Q539.1844 34.934376 539.3719 34.41875Q539.6219 33.73125 540.2625 33.309376Q540.90314 32.8875 542.0594 32.8875Q542.8094 32.8875 543.7 33.059376L543.4344 34.590626Q542.8875 34.496876 542.40314 34.496876Q541.60626 34.496876 541.2625 34.840626Q540.9344 35.184376 540.9344 36.121876L540.9344 37.075L542.96564 37.075L542.96564 38.45L540.9344 38.45L540.9344 47.45L539.1844 47.45ZM544.29376 43.66875L546.04376 43.434376Q546.35626 44.934376 547.075 45.590626Q547.8094 46.246876 548.85626 46.246876Q550.09064 46.246876 550.9344 45.3875Q551.79376 44.528126 551.79376 43.2625Q551.79376 42.04375 550.9969 41.2625Q550.21564 40.48125 548.9969 40.48125Q548.4969 40.48125 547.7625 40.66875L547.95 39.121876Q548.1219 39.153126 548.23126 39.153126Q549.35626 39.153126 550.2469 38.575Q551.15314 37.98125 551.15314 36.7625Q551.15314 35.79375 550.4969 35.153126Q549.84064 34.5125 548.8094 34.5125Q547.79376 34.5125 547.10626 35.16875Q546.41876 35.809376 546.23126 37.090626L544.46564 36.778126Q544.79376 35.0125 545.9344 34.04375Q547.075 33.075 548.77814 33.075Q549.95 33.075 550.9344 33.575Q551.91876 34.075 552.4344 34.95Q552.96564 35.825 552.96564 36.79375Q552.96564 37.715626 552.46564 38.48125Q551.96564 39.246876 550.9969 39.7Q552.2625 39.98125 552.96564 40.91875Q553.66876 41.840626 553.66876 43.215626Q553.66876 45.090626 552.29376 46.403126Q550.9344 47.7 548.84064 47.7Q546.95 47.7 545.7 46.575Q544.46564 45.45 544.29376 43.66875ZM564.5125 45.7625L564.5125 47.45L555.0594 47.45Q555.04376 46.809376 555.2625 46.23125Q555.6219 45.2625 556.41876 44.325Q557.21564 43.3875 558.71564 42.153126Q561.0594 40.246876 561.8719 39.1375Q562.7 38.0125 562.7 37.0125Q562.7 35.965626 561.95 35.246876Q561.2 34.528126 559.9969 34.528126Q558.73126 34.528126 557.96564 35.29375Q557.2 36.059376 557.2 37.403126L555.3875 37.215626Q555.575 35.2 556.77814 34.1375Q557.9969 33.075 560.04376 33.075Q562.09064 33.075 563.29376 34.215626Q564.4969 35.35625 564.4969 37.04375Q564.4969 37.903126 564.1375 38.746876Q563.79376 39.575 562.98126 40.496876Q562.16876 41.403126 560.27814 43.0125Q558.6844 44.340626 558.23126 44.809376Q557.79376 45.278126 557.4969 45.7625L564.5125 45.7625Z" fill-rule="nonzero"/></svg>